<svg width="34" height="34" viewBox="0 0 34 34" fill="none" xmlns="http://www.w3.org/2000/svg">
<rect width="34" height="34" rx="9" fill="#E6EBFF"/>
<path d="M19.7383 12.1603C20.057 11.8445 20.0593 11.33 19.7434 11.0113C19.4275 10.6926 18.9131 10.6903 18.5944 11.0062L16.6501 12.9332C15.9178 13.659 15.3193 14.2521 14.8948 14.7807C14.4534 15.3303 14.1339 15.8881 14.0486 16.5577C14.0112 16.8514 14.0112 17.1485 14.0486 17.4421C14.1339 18.1117 14.4534 18.6696 14.8948 19.2192C15.3193 19.7477 15.9178 20.3409 16.6501 21.0666L18.5944 22.9937C18.9131 23.3095 19.4275 23.3073 19.7434 22.9885C20.0593 22.6698 20.057 22.1554 19.7383 21.8395L17.8284 19.9466C17.0533 19.1784 16.5216 18.6496 16.1618 18.2017C15.8123 17.7665 15.6924 17.487 15.6605 17.2366C15.6405 17.0794 15.6405 16.9204 15.6605 16.7632C15.6924 16.5129 15.8123 16.2334 16.1618 15.7982C16.5216 15.3502 17.0533 14.8215 17.8284 14.0533L19.7383 12.1603Z" fill="#313FDD"/>
</svg>
