<svg width="150" height="150" viewBox="0 0 150 150" fill="none" xmlns="http://www.w3.org/2000/svg">
<path d="M75 150C116.421 150 150 116.421 150 75C150 33.5786 116.421 0 75 0C33.5786 0 0 33.5786 0 75C0 116.421 33.5786 150 75 150Z" fill="#FAE3E3"/>
<path d="M120 150H30V53C34.242 52.9952 38.3089 51.308 41.3084 48.3085C44.308 45.3089 45.9952 41.242 46 37H104C103.996 39.1014 104.408 41.1828 105.213 43.1238C106.018 45.0648 107.2 46.8268 108.691 48.308C110.172 49.7991 111.934 50.9816 113.875 51.787C115.817 52.5924 117.898 53.0047 120 53V150Z" fill="white"/>
<path d="M75 102C88.2548 102 99 91.2548 99 78C99 64.7452 88.2548 54 75 54C61.7452 54 51 64.7452 51 78C51 91.2548 61.7452 102 75 102Z" fill="#F44242"/>
<path d="M84.1924 88.6068C83.8019 88.9973 83.1687 88.9973 82.7782 88.6068L75.7071 81.5357C75.3166 81.1452 74.6834 81.1452 74.2929 81.5357L67.2218 88.6068C66.8313 88.9973 66.1981 88.9973 65.8076 88.6068L64.3934 87.1925C64.0029 86.802 64.0029 86.1689 64.3934 85.7783L71.4645 78.7073C71.855 78.3167 71.855 77.6836 71.4645 77.2931L64.3934 70.222C64.0029 69.8315 64.0029 69.1983 64.3934 68.8078L65.8076 67.3936C66.1981 67.003 66.8313 67.003 67.2218 67.3936L74.2929 74.4646C74.6834 74.8552 75.3166 74.8552 75.7071 74.4646L82.7782 67.3936C83.1687 67.003 83.8019 67.003 84.1924 67.3936L85.6066 68.8078C85.9971 69.1983 85.9971 69.8315 85.6066 70.222L78.5355 77.2931C78.145 77.6836 78.145 78.3167 78.5355 78.7073L85.6066 85.7783C85.9971 86.1689 85.9971 86.802 85.6066 87.1925L84.1924 88.6068Z" fill="white"/>
<path d="M88 108H62C60.3431 108 59 109.343 59 111C59 112.657 60.3431 114 62 114H88C89.6569 114 91 112.657 91 111C91 109.343 89.6569 108 88 108Z" fill="#DFEAFB"/>
<path d="M97 120H53C51.3431 120 50 121.343 50 123C50 124.657 51.3431 126 53 126H97C98.6569 126 100 124.657 100 123C100 121.343 98.6569 120 97 120Z" fill="#DFEAFB"/>
</svg>
