<svg width="150" height="153" viewBox="0 0 150 153" fill="none" xmlns="http://www.w3.org/2000/svg">
<path d="M75 150C116.421 150 150 116.421 150 75C150 33.5786 116.421 0 75 0C33.5786 0 0 33.5786 0 75C0 116.421 33.5786 150 75 150Z" fill="url(#paint0_linear_11421_56515)"/>
<g filter="url(#filter0_d_11421_56515)">
<mask id="mask0_11421_56515" style="mask-type:alpha" maskUnits="userSpaceOnUse" x="0" y="0" width="150" height="150">
<path d="M75 150C116.421 150 150 116.421 150 75C150 33.5786 116.421 0 75 0C33.5786 0 0 33.5786 0 75C0 116.421 33.5786 150 75 150Z" fill="url(#paint1_linear_11421_56515)"/>
</mask>
<g mask="url(#mask0_11421_56515)">
<path d="M118 43H32C29.2386 43 27 45.2386 27 48V153C27 155.761 29.2386 158 32 158H118C120.761 158 123 155.761 123 153V48C123 45.2386 120.761 43 118 43Z" fill="white"/>
</g>
</g>
<path d="M66 53H40C38.3431 53 37 54.3431 37 56C37 57.6569 38.3431 59 40 59H66C67.6569 59 69 57.6569 69 56C69 54.3431 67.6569 53 66 53Z" fill="#E1EBFA"/>
<path d="M66 95H40C38.3431 95 37 96.3431 37 98C37 99.6569 38.3431 101 40 101H66C67.6569 101 69 99.6569 69 98C69 96.3431 67.6569 95 66 95Z" fill="#E1EBFA"/>
<path d="M108 68H42C39.7909 68 38 69.7909 38 72V82C38 84.2091 39.7909 86 42 86H108C110.209 86 112 84.2091 112 82V72C112 69.7909 110.209 68 108 68Z" stroke="#1485FD" stroke-width="2"/>
<path d="M108 109H42C39.2386 109 37 111.239 37 114V122C37 124.761 39.2386 127 42 127H108C110.761 127 113 124.761 113 122V114C113 111.239 110.761 109 108 109Z" fill="#DFEAFB"/>
<path d="M53 32C55.2091 32 57 30.2091 57 28C57 25.7909 55.2091 24 53 24C50.7909 24 49 25.7909 49 28C49 30.2091 50.7909 32 53 32Z" fill="white"/>
<path d="M75 32C77.2091 32 79 30.2091 79 28C79 25.7909 77.2091 24 75 24C72.7909 24 71 25.7909 71 28C71 30.2091 72.7909 32 75 32Z" fill="#1485FD"/>
<path d="M97 32C99.2091 32 101 30.2091 101 28C101 25.7909 99.2091 24 97 24C94.7909 24 93 25.7909 93 28C93 30.2091 94.7909 32 97 32Z" fill="white"/>
<path d="M86 88C88.7614 88 91 85.7614 91 83C91 80.2386 88.7614 78 86 78C83.2386 78 81 80.2386 81 83C81 85.7614 83.2386 88 86 88Z" fill="#DFEAFB"/>
<path d="M89.9071 104.37C89.1071 104.37 88.3601 104.37 87.6801 104.327C86.8425 104.27 86.0367 103.984 85.3515 103.499C84.6662 103.014 84.128 102.349 83.7961 101.578L79.5771 93.24C79.2676 92.8797 79.1131 92.4117 79.1472 91.938C79.1813 91.4643 79.4012 91.0233 79.7591 90.711C80.0522 90.4754 80.418 90.3485 80.7941 90.352C81.071 90.3601 81.3428 90.4281 81.5909 90.5513C81.839 90.6746 82.0574 90.8502 82.2311 91.066L84.1471 93.681L84.1761 93.715V83.78C84.1761 83.2871 84.3719 82.8144 84.7204 82.4659C85.069 82.1173 85.5417 81.9215 86.0346 81.9215C86.5275 81.9215 87.0002 82.1173 87.3487 82.4659C87.6973 82.8144 87.8931 83.2871 87.8931 83.78V90.28C87.8715 90.0408 87.9 89.7998 87.9767 89.5722C88.0534 89.3446 88.1767 89.1355 88.3387 88.9582C88.5007 88.781 88.6979 88.6394 88.9176 88.5425C89.1374 88.4456 89.3749 88.3956 89.6151 88.3956C89.8552 88.3956 90.0928 88.4456 90.3125 88.5425C90.5323 88.6394 90.7294 88.781 90.8914 88.9582C91.0534 89.1355 91.1767 89.3446 91.2535 89.5722C91.3302 89.7998 91.3587 90.0408 91.3371 90.28V91.635C91.3155 91.3958 91.344 91.1548 91.4207 90.9272C91.4974 90.6996 91.6207 90.4905 91.7827 90.3132C91.9447 90.136 92.1419 89.9944 92.3616 89.8975C92.5814 89.8006 92.8189 89.7506 93.0591 89.7506C93.2992 89.7506 93.5368 89.8006 93.7565 89.8975C93.9763 89.9944 94.1734 90.136 94.3354 90.3132C94.4974 90.4905 94.6207 90.6996 94.6975 90.9272C94.7742 91.1548 94.8027 91.3958 94.7811 91.635V92.679C94.7595 92.4398 94.788 92.1988 94.8647 91.9712C94.9414 91.7436 95.0647 91.5345 95.2267 91.3572C95.3887 91.18 95.5859 91.0384 95.8056 90.9415C96.0254 90.8446 96.2629 90.7946 96.5031 90.7946C96.7432 90.7946 96.9808 90.8446 97.2005 90.9415C97.4203 91.0384 97.6174 91.18 97.7794 91.3572C97.9414 91.5345 98.0647 91.7436 98.1415 91.9712C98.2182 92.1988 98.2467 92.4398 98.2251 92.679V99.016C98.1911 100.965 97.3101 104.251 94.2111 104.251C93.9861 104.261 92.0801 104.371 89.9111 104.371L89.9071 104.37Z" fill="#1485FD" stroke="white"/>
<defs>
<filter id="filter0_d_11421_56515" x="21" y="34" width="108" height="119" filterUnits="userSpaceOnUse" color-interpolation-filters="sRGB">
<feFlood flood-opacity="0" result="BackgroundImageFix"/>
<feColorMatrix in="SourceAlpha" type="matrix" values="0 0 0 0 0 0 0 0 0 0 0 0 0 0 0 0 0 0 127 0" result="hardAlpha"/>
<feOffset dy="-3"/>
<feGaussianBlur stdDeviation="3"/>
<feColorMatrix type="matrix" values="0 0 0 0 0.788235 0 0 0 0 0.803922 0 0 0 0 0.85098 0 0 0 0.349 0"/>
<feBlend mode="normal" in2="BackgroundImageFix" result="effect1_dropShadow_11421_56515"/>
<feBlend mode="normal" in="SourceGraphic" in2="effect1_dropShadow_11421_56515" result="shape"/>
</filter>
<linearGradient id="paint0_linear_11421_56515" x1="75" y1="0" x2="75" y2="150" gradientUnits="userSpaceOnUse">
<stop stop-color="#E3ECFA"/>
<stop offset="1" stop-color="#DAE7FF"/>
</linearGradient>
<linearGradient id="paint1_linear_11421_56515" x1="75" y1="0" x2="75" y2="150" gradientUnits="userSpaceOnUse">
<stop stop-color="#E3ECFA"/>
<stop offset="1" stop-color="#DAE7FF"/>
</linearGradient>
</defs>
</svg>
