<svg width="366" height="273" viewBox="0 0 366 273" fill="none" xmlns="http://www.w3.org/2000/svg">
<path d="M366 239.691H0V239.874H366V239.691Z" fill="#DCDDEC"/>
<path d="M329.328 251.473H318.42V251.656H329.328V251.473Z" fill="#DCDDEC"/>
<path d="M242.454 253.459H236.091V253.642H242.454V253.459Z" fill="#DCDDEC"/>
<path d="M315.331 244.675H290.303V244.859H315.331V244.675Z" fill="#DCDDEC"/>
<path d="M80.2487 248.452H48.6318V248.635H80.2487V248.452Z" fill="#DCDDEC"/>
<path d="M98.1672 248.452H86.7646V248.635H98.1672V248.452Z" fill="#DCDDEC"/>
<path d="M186.48 245.996H117.91V246.179H186.48V245.996Z" fill="#DCDDEC"/>
<path d="M173.493 207.044H32.1433C31.0355 207.043 29.9733 206.602 29.19 205.819C28.4066 205.036 27.966 203.974 27.9648 202.866V4.17698C27.9664 3.0694 28.4072 2.00766 29.1905 1.22462C29.9738 0.441579 31.0357 0.00117218 32.1433 0H173.493C174.6 0.00156292 175.662 0.44214 176.445 1.22514C177.228 2.00814 177.669 3.06966 177.67 4.17698V202.863C177.67 203.971 177.23 205.034 176.447 205.818C175.663 206.601 174.601 207.043 173.493 207.044ZM32.1448 0.18315C31.0881 0.186267 30.0755 0.607425 29.3283 1.35463C28.5811 2.10184 28.16 3.11437 28.1569 4.17108V202.863C28.16 203.92 28.5811 204.932 29.3283 205.679C30.0755 206.426 31.0881 206.848 32.1448 206.851H173.495C174.551 206.848 175.564 206.426 176.311 205.679C177.058 204.932 177.479 203.92 177.483 202.863V4.17698C177.479 3.12028 177.058 2.10774 176.311 1.36054C175.564 0.61333 174.551 0.192178 173.495 0.18906L32.1448 0.18315Z" fill="#DCDDEC"/>
<path d="M331.823 207.044H190.473C189.365 207.043 188.304 206.602 187.521 205.819C186.737 205.035 186.297 203.973 186.296 202.866V4.17698C186.297 3.06954 186.738 2.00779 187.521 1.22471C188.304 0.441627 189.365 0.00117293 190.473 0H331.823C332.93 0.00117218 333.992 0.441579 334.776 1.22462C335.559 2.00766 336 3.0694 336.001 4.17698V202.863C336.001 203.971 335.56 205.034 334.777 205.818C333.994 206.602 332.931 207.043 331.823 207.044ZM190.473 0.18315C189.416 0.186267 188.404 0.607425 187.656 1.35463C186.909 2.10184 186.488 3.11437 186.485 4.17108V202.863C186.488 203.92 186.909 204.932 187.656 205.679C188.404 206.426 189.416 206.848 190.473 206.851H331.823C332.881 206.85 333.895 206.429 334.644 205.682C335.393 204.934 335.815 203.921 335.818 202.863V4.17698C335.815 3.119 335.393 2.10536 334.644 1.35794C333.895 0.610522 332.881 0.190228 331.823 0.18906L190.473 0.18315Z" fill="#DCDDEC"/>
<path d="M156.996 239.689H170.627V146.088H156.996V239.689Z" fill="#E7E5EF"/>
<path d="M161.794 239.689H156.995V221.906H166.825L161.794 239.689Z" fill="#F0EEF7"/>
<path d="M301.141 239.689H314.772V146.088H301.141V239.689Z" fill="#E7E5EF"/>
<path d="M156.997 234.834L305.332 234.834V146.088H156.997V234.834Z" fill="#F0EEF7"/>
<path d="M300.536 239.689H305.334V221.906H295.499L300.536 239.689Z" fill="#F0EEF7"/>
<path d="M256.426 153.436V226.849H300.398V153.436H256.426Z" fill="#E7E5EF"/>
<path d="M274.061 156.018H282.761C286.443 156.055 290.006 154.716 292.751 152.263H264.072C266.818 154.716 270.38 156.055 274.061 156.018Z" fill="#F0EEF7"/>
<path d="M209.177 153.436V226.849H253.149V153.436H209.177Z" fill="#E7E5EF"/>
<path d="M226.37 156.018H235.07C238.751 156.055 242.314 154.716 245.059 152.263H216.38C219.126 154.716 222.689 156.055 226.37 156.018Z" fill="#F0EEF7"/>
<path d="M161.931 153.436V226.849H205.903V153.436H161.931Z" fill="#E7E5EF"/>
<path d="M179.124 156.018H187.824C191.506 156.055 195.069 154.716 197.814 152.263H169.134C171.88 154.716 175.443 156.055 179.124 156.018Z" fill="#F0EEF7"/>
<path d="M51.2281 239.689H144.235L144.235 30.6154H51.2281L51.2281 239.689Z" fill="#F0EEF7"/>
<path d="M51.2252 239.689H142.27L142.27 30.6154H51.2252L51.2252 239.689Z" fill="#F3F4FA"/>
<path d="M136.724 234.945V35.3596L56.7746 35.3596L56.7746 234.945H136.724Z" fill="#F0EEF7"/>
<path d="M128.869 72.4784C128.869 69.616 128.305 66.7817 127.21 64.1373C126.114 61.4929 124.509 59.0901 122.485 57.0661C120.461 55.0421 118.058 53.4366 115.414 52.3413C112.769 51.2459 109.935 50.6821 107.073 50.6821H86.43C80.6493 50.6821 75.1053 52.9785 71.0178 57.0661C66.9302 61.1537 64.6338 66.6976 64.6338 72.4784H128.869Z" fill="#FAFAFA"/>
<path d="M128.867 222.54V174.859H64.632V222.54H128.867Z" fill="#F3F4FA"/>
<path d="M128.867 85.9221H100.533V168.707H128.867V85.9221Z" fill="#F3F4FA"/>
<path d="M92.9673 85.9221H64.6338V168.707H92.9673V85.9221Z" fill="#F3F4FA"/>
<path d="M74.9083 126.942H63.3034C62.8263 126.94 62.369 126.75 62.0316 126.413C61.6942 126.076 61.5041 125.618 61.5029 125.141C61.5045 124.664 61.6947 124.207 62.032 123.87C62.3693 123.532 62.8264 123.342 63.3034 123.341H74.9083C75.3853 123.342 75.8424 123.532 76.1797 123.87C76.517 124.207 76.7072 124.664 76.7087 125.141C76.7076 125.618 76.5175 126.076 76.1801 126.413C75.8427 126.75 75.3854 126.94 74.9083 126.942Z" fill="#E0E0E0"/>
<path d="M58.2129 234.945L58.2129 35.3596H56.7743L56.7743 234.945H58.2129Z" fill="#F0EEF7"/>
<path d="M203.058 123.141L301.691 123.141V30.6155L203.058 30.6155V123.141Z" fill="#E7E5EF"/>
<path d="M200.571 123.141L299.204 123.141V30.6155L200.571 30.6155V123.141Z" fill="#F3F4FA"/>
<path d="M194.814 128.497H301.691V123.141L194.814 123.141V128.497Z" fill="#E7E5EF"/>
<path d="M192.016 128.497H293.389V123.141L192.016 123.141V128.497Z" fill="#F3F4FA"/>
<path d="M294.74 118.329V35.4291L205.033 35.4291V118.329H294.74Z" fill="white"/>
<path d="M252.374 118.329V35.4291H247.401V118.329H252.374Z" fill="#F3F4FA"/>
<path d="M206.915 118.329V35.4291H205.035V118.329H206.915Z" fill="#E7E5EF"/>
<path d="M254.254 118.329V35.4291H252.374V118.329H254.254Z" fill="#E7E5EF"/>
<path d="M216.322 125.595C214.509 106.8 213.246 76.3008 214.227 66.1006C214.244 65.9253 214.298 65.7557 214.385 65.6029C214.473 65.4501 214.592 65.3177 214.735 65.2144C214.924 65.0756 215.149 64.9929 215.384 64.9757C215.618 64.9585 215.852 65.0075 216.06 65.1172C216.268 65.2268 216.441 65.3926 216.559 65.5958C216.677 65.7989 216.736 66.0312 216.729 66.266C216.556 71.3204 216.356 83.9533 217.433 105.747C217.969 116.595 218.742 124.025 218.212 125.592L216.322 125.595Z" fill="#E7E5EF"/>
<path d="M209.561 82.2754C204.392 76.5402 193.847 72.4622 183.098 72.4829C178.878 72.4917 195.937 79.1545 203.037 86.5145C208.711 92.6263 213.382 99.5979 216.875 107.17C215.505 95.9378 214.726 88.0077 209.561 82.2754Z" fill="#E7E5EF"/>
<path d="M219.8 84.0212C224.084 78.0482 233.99 73.4547 244.703 72.9348C248.908 72.731 232.907 80.2268 226.936 87.9102C222.172 94.332 218.551 101.527 216.232 109.179C215.919 97.9347 215.511 89.9957 219.8 84.0212Z" fill="#E7E5EF"/>
<path d="M209.332 61.3284C204.959 56.472 196.026 53.0188 186.923 53.0365C183.35 53.0365 197.795 58.6876 203.802 64.9131C208.607 70.0883 212.562 75.9917 215.521 82.4039C214.366 72.9008 213.702 66.1849 209.332 61.3284Z" fill="#E7E5EF"/>
<path d="M217.999 68.5111C221.631 63.4524 230.016 59.5634 239.086 59.1233C242.647 58.9505 229.098 65.2972 224.041 71.8034C220.006 77.244 216.94 83.3399 214.977 89.8229C214.714 80.2932 214.367 73.5669 217.999 68.5111Z" fill="#E7E5EF"/>
<path d="M217.053 146.088C214.327 146.088 211.705 145.046 209.723 143.174C207.741 141.303 206.55 138.745 206.394 136.024L205.451 119.684H228.655L227.713 136.024C227.556 138.745 226.365 141.303 224.383 143.174C222.401 145.046 219.779 146.088 217.053 146.088Z" fill="#E7E5EF"/>
<path d="M230.157 123.398H203.953L203.203 116.604H230.913L230.157 123.398Z" fill="#E7E5EF"/>
<path d="M183.002 272.75C261.386 272.75 324.929 269.039 324.929 264.461C324.929 259.884 261.386 256.172 183.002 256.172C104.617 256.172 41.0742 259.884 41.0742 264.461C41.0742 269.039 104.617 272.75 183.002 272.75Z" fill="#F3F4FA"/>
<path d="M185.861 256.54L179.749 257.229L177.495 243.368L183.607 242.68L185.861 256.54Z" fill="#FFC3BD"/>
<path d="M213.224 257.875H207.121L205.602 243.742H211.705L213.224 257.875Z" fill="#FFC3BD"/>
<path d="M206.618 257.165H214.058C214.179 257.165 214.297 257.206 214.391 257.282C214.486 257.358 214.552 257.463 214.578 257.582L215.783 263.007C215.812 263.139 215.81 263.276 215.778 263.407C215.746 263.538 215.684 263.661 215.598 263.765C215.513 263.869 215.404 263.953 215.281 264.01C215.159 264.066 215.025 264.095 214.89 264.092C212.495 264.051 210.754 263.911 207.735 263.911C205.88 263.911 200.285 264.103 197.724 264.103C195.213 264.103 194.828 261.569 195.876 261.341C200.579 260.307 204.122 258.893 205.624 257.54C205.898 257.296 206.252 257.162 206.618 257.165Z" fill="#263238"/>
<path d="M179.648 256.181L186.271 255.431C186.392 255.417 186.513 255.444 186.616 255.509C186.718 255.573 186.796 255.671 186.836 255.786L188.645 261.039C188.69 261.166 188.706 261.302 188.692 261.436C188.677 261.571 188.631 261.7 188.559 261.814C188.486 261.928 188.389 262.024 188.274 262.094C188.159 262.165 188.029 262.208 187.895 262.221C185.502 262.451 182.034 262.702 179.032 263.044C175.522 263.442 174.937 264.382 170.795 264.286C168.284 264.227 167.655 261.679 168.708 261.479C173.506 260.547 174.433 259.822 178.245 256.83C178.644 256.487 179.129 256.263 179.648 256.181Z" fill="#263238"/>
<path d="M185.04 78.5429C182.99 80.2355 180.972 81.7067 178.885 83.2132C176.798 84.7198 174.667 86.1185 172.474 87.4759C170.28 88.8332 168.029 90.1345 165.669 91.3161C163.256 92.5661 160.744 93.6144 158.158 94.4503C157.474 94.6689 156.808 94.8491 156.04 95.0411C155.289 95.2039 154.53 95.3257 153.766 95.4059C152.391 95.5536 151.097 95.6201 149.807 95.6792C147.237 95.7973 144.716 95.7944 142.198 95.7766C137.161 95.7161 132.167 95.4739 127.151 95.0308L127.076 90.452C132.002 89.8184 136.95 89.2704 141.846 88.7195C144.294 88.4536 146.735 88.1553 149.121 87.8436C150.302 87.6826 151.484 87.4936 152.574 87.2912C153.042 87.2085 153.506 87.0995 153.962 86.9648C154.392 86.8171 154.919 86.6487 155.407 86.4523C157.5 85.6025 159.532 84.6085 161.488 83.4776C163.513 82.3152 165.539 81.0671 167.53 79.7408C169.521 78.4144 171.503 77.0408 173.468 75.6391C175.432 74.2374 177.395 72.753 179.238 71.3558L185.04 78.5429Z" fill="#FFC3BD"/>
<path d="M191.007 73.3261C190.13 79.0953 177.983 87.9205 177.983 87.9205L169.269 77.1043C173.086 73.0303 177.134 69.1783 181.392 65.5674C185.313 62.3623 191.961 67.0488 191.007 73.3261Z" fill="#313FDD"/>
<path d="M128.756 90.935L125.291 88.4684L124.911 96.2611C125.435 96.2625 125.951 96.1356 126.415 95.8915C126.878 95.6474 127.275 95.2936 127.57 94.8609L128.756 90.935Z" fill="#FFC3BD"/>
<path d="M122.16 86.1998L121.451 93.8374L124.913 96.2612L125.293 88.4684L122.16 86.1998Z" fill="#FFC3BD"/>
<path opacity="0.2" d="M177.5 243.373L178.661 250.517L184.774 249.829L183.613 242.684L177.5 243.373Z" fill="black"/>
<path opacity="0.2" d="M211.71 243.743H205.604L206.39 251.028H212.496L211.71 243.743Z" fill="black"/>
<path d="M211.796 65.752C212.25 65.8539 212.68 66.0457 213.059 66.3162C213.439 66.5866 213.76 66.9302 214.005 67.3267C214.249 67.7232 214.412 68.1646 214.483 68.625C214.555 69.0853 214.533 69.5553 214.42 70.0073C213.096 75.504 212.098 81.0741 211.431 86.6886C210.853 91.415 210.508 95.9302 210.292 100.023C209.786 109.616 209.997 116.929 209.71 119.407C204.938 119.076 186.954 117.825 177.148 117.14C173.838 91.2274 177.717 74.6909 179.895 67.9719C180.229 66.925 180.853 65.9943 181.695 65.2883C182.537 64.5823 183.562 64.13 184.651 63.984C185.901 63.8201 187.396 63.662 188.973 63.569C189.525 63.5335 190.085 63.5143 190.655 63.5025C195.285 63.5573 199.907 63.8789 204.499 64.4655C205.371 64.5689 206.251 64.6974 207.108 64.8348C208.82 65.1213 210.447 65.4507 211.796 65.752Z" fill="#313FDD"/>
<path d="M204.216 48.79C203.034 53.1827 201.59 61.2826 204.499 64.4729C196.952 69.5494 192.134 76.6967 190.744 75.1443C190.016 74.332 189.7 64.9308 190.657 63.507C195.707 62.668 195.835 58.974 195.212 55.4528L204.216 48.79Z" fill="#FFC3BD"/>
<path d="M203.913 62.6518C203.913 62.6518 191.614 68.0946 189.983 80.2651C193.372 76.3422 200.856 72.0736 200.856 72.0736L197.555 71.1254C199.654 70.3287 201.827 69.7438 204.043 69.3796C203.677 67.6987 205.629 64.3459 205.629 64.3459L203.913 62.6518Z" fill="#313FDD"/>
<path d="M192.819 62.4553C192.819 62.4553 194.459 69.4061 189.988 80.2651C189.106 76.475 187.898 72.7686 186.375 69.1875L189.387 70.0073C189.387 70.0073 189.239 68.6056 186.8 66.7416C187.817 65.2656 189.084 63.9794 190.545 62.9413L192.819 62.4553Z" fill="#313FDD"/>
<path opacity="0.2" d="M200.546 51.5092L195.217 55.4499C195.375 56.2699 195.46 57.1022 195.472 57.9372C197.392 57.7895 200.14 55.8945 200.481 53.9227C200.648 53.1287 200.67 52.311 200.546 51.5092Z" fill="black"/>
<path d="M188.586 36.07C185.61 36.1985 183.968 41.3297 186.988 45.5554C190.009 49.7811 192.596 35.8972 188.586 36.07Z" fill="#263238"/>
<path d="M203.266 40.5853C203.619 46.6322 204.133 50.1519 201.471 53.5977C197.469 58.7806 189.729 56.9225 187.577 51.1031C185.641 45.8656 185.388 36.8573 190.974 33.763C192.203 33.0741 193.587 32.7109 194.996 32.7079C196.405 32.7049 197.791 33.0622 199.023 33.7459C200.254 34.4295 201.291 35.4168 202.034 36.6139C202.776 37.811 203.2 39.1781 203.266 40.5853Z" fill="#FFC3BD"/>
<path d="M204.152 45.2319C202.535 44.2841 201.123 43.024 199.998 41.5251C198.873 40.0262 198.057 38.3185 197.599 36.5013C195.826 36.9208 186.992 40.9855 184.276 36.5013C181.56 32.0171 184.978 29.3866 190.06 32.1471C187.812 28.1799 189.856 26.2391 196.919 26.0677C203.982 25.8964 203.033 29.9907 203.033 29.9907C203.033 29.9907 208.379 27.6629 210.27 31.7631C212.46 36.4747 208.419 44.52 204.152 45.2319Z" fill="#263238"/>
<path d="M201.826 28.908C201.891 28.908 204.501 29.5357 207.508 26.5093C206.969 29.0912 202.299 30.8104 202.299 30.8104L201.826 28.908Z" fill="#263238"/>
<path d="M205.335 37.7539C202.519 36.7805 199.108 40.9531 200.368 45.9912C201.628 51.0292 209.13 39.0655 205.335 37.7539Z" fill="#263238"/>
<path d="M206.928 45.6145C206.67 47.1162 205.827 48.4545 204.585 49.3366C202.929 50.4916 201.438 49.1712 201.336 47.2599C201.25 45.5407 202.006 42.8673 203.937 42.4729C204.36 42.3937 204.797 42.4217 205.207 42.5542C205.617 42.6868 205.988 42.9197 206.285 43.2319C206.582 43.544 206.796 43.9255 206.909 44.3416C207.021 44.7577 207.027 45.1953 206.928 45.6145Z" fill="#FFC3BD"/>
<path d="M186.325 185.901C187.792 168.05 198.55 118.633 198.55 118.633L177.143 117.14C177.143 117.14 168.888 166.193 168.255 184.809C167.597 204.166 175.382 247.185 175.382 247.185L185.649 246.017C185.649 246.017 184.853 203.826 186.325 185.901Z" fill="#313FDD"/>
<path opacity="0.5" d="M186.325 185.901C187.792 168.05 198.55 118.633 198.55 118.633L177.143 117.14C177.143 117.14 168.888 166.193 168.255 184.809C167.597 204.166 175.382 247.185 175.382 247.185L185.649 246.017C185.649 246.017 184.853 203.826 186.325 185.901Z" fill="white"/>
<path opacity="0.2" d="M190.486 135.368C186.17 140.886 186.094 160.266 187.763 174.584C189.353 164.255 191.86 151.138 194.056 140.204L190.486 135.368Z" fill="black"/>
<path d="M188.695 117.945C188.695 117.945 191.005 170.194 193.583 187.889C196.404 207.266 203.569 249.616 203.569 249.616H214.747C214.747 249.616 212.908 209.728 211.432 190.691C209.753 169.007 209.707 119.41 209.707 119.41L188.695 117.945Z" fill="#313FDD"/>
<path opacity="0.5" d="M188.695 117.945C188.695 117.945 191.005 170.194 193.583 187.889C196.404 207.266 203.569 249.616 203.569 249.616H214.747C214.747 249.616 212.908 209.728 211.432 190.691C209.753 169.007 209.707 119.41 209.707 119.41L188.695 117.945Z" fill="white"/>
<path d="M202.222 249.854H215.383V245.922L200.671 245.667L202.222 249.854Z" fill="#313FDD"/>
<path d="M174.933 248.341L187.169 246.954L186.726 243.001L173.023 244.343L174.933 248.341Z" fill="#313FDD"/>
<path d="M194.361 43.3576C194.42 43.8465 194.213 44.2733 193.888 44.3117C193.563 44.3501 193.262 43.9853 193.204 43.4964C193.146 43.0075 193.352 42.5807 193.677 42.5423C194.002 42.5039 194.303 42.8687 194.361 43.3576Z" fill="#263238"/>
<path d="M188.838 44.0207C188.897 44.5096 188.69 44.9365 188.365 44.9749C188.04 45.0133 187.739 44.6485 187.68 44.1596C187.621 43.6707 187.828 43.2438 188.153 43.2054C188.478 43.167 188.779 43.5378 188.838 44.0207Z" fill="#263238"/>
<path d="M190.623 44.0533C190.22 45.617 189.604 47.1179 188.792 48.5138C189.154 48.7124 189.556 48.8294 189.968 48.8567C190.38 48.884 190.793 48.8209 191.179 48.6719L190.623 44.0533Z" fill="#ED847E"/>
<path d="M195.862 41.3651C195.811 41.3806 195.756 41.3818 195.704 41.3685C195.652 41.3552 195.604 41.328 195.567 41.2898C195.322 41.0212 195.018 40.8142 194.678 40.6858C194.339 40.5575 193.974 40.5114 193.613 40.5513C193.537 40.564 193.46 40.5471 193.397 40.5041C193.334 40.4612 193.29 40.3955 193.274 40.3209C193.267 40.2835 193.267 40.2449 193.274 40.2075C193.282 40.1701 193.297 40.1345 193.318 40.103C193.34 40.0714 193.367 40.0445 193.399 40.0239C193.431 40.0032 193.467 39.9892 193.505 39.9826C193.96 39.9236 194.423 39.9749 194.855 40.1322C195.287 40.2895 195.674 40.5482 195.985 40.8866C196.037 40.9416 196.067 41.0149 196.067 41.0911C196.067 41.1674 196.037 41.2407 195.985 41.2957C195.95 41.3287 195.908 41.3526 195.862 41.3651Z" fill="#263238"/>
<path d="M193.743 50.6215C194.44 50.4749 195.091 50.1627 195.642 49.7112C196.193 49.2598 196.627 48.6824 196.908 48.0279C196.922 47.9887 196.919 47.9457 196.901 47.9083C196.883 47.8709 196.851 47.8422 196.812 47.8285C196.773 47.8148 196.73 47.8172 196.692 47.8352C196.655 47.8532 196.626 47.8853 196.613 47.9245C196.344 48.5266 195.937 49.0571 195.426 49.4732C194.914 49.8893 194.312 50.1795 193.668 50.3202C193.648 50.3248 193.629 50.3332 193.612 50.345C193.596 50.3568 193.581 50.3718 193.571 50.3891C193.56 50.4064 193.552 50.4256 193.549 50.4457C193.546 50.4658 193.546 50.4864 193.551 50.5063C193.555 50.5262 193.564 50.545 193.576 50.5616C193.587 50.5782 193.602 50.5924 193.62 50.6032C193.637 50.614 193.656 50.6213 193.676 50.6247C193.696 50.6281 193.717 50.6275 193.737 50.623L193.743 50.6215Z" fill="#263238"/>
<path d="M186.242 42.4049C186.184 42.4243 186.121 42.4243 186.063 42.4049C185.992 42.3785 185.933 42.3255 185.9 42.257C185.867 42.1884 185.861 42.1097 185.884 42.0372C186.023 41.5991 186.265 41.2008 186.59 40.8763C186.916 40.5518 187.314 40.3106 187.753 40.1732C187.827 40.1564 187.905 40.1688 187.97 40.2079C188.035 40.247 188.083 40.3097 188.103 40.3829C188.12 40.4569 188.107 40.5344 188.069 40.5996C188.03 40.6647 187.968 40.7125 187.895 40.733C187.55 40.8479 187.237 41.0431 186.983 41.3025C186.728 41.5618 186.539 41.8779 186.431 42.2248C186.415 42.2673 186.39 42.3056 186.357 42.3369C186.325 42.3681 186.285 42.3914 186.242 42.4049Z" fill="#263238"/>
<path d="M204.61 258.231C204.192 258.265 203.776 258.155 203.429 257.92C203.321 257.827 203.237 257.708 203.186 257.575C203.134 257.442 203.116 257.298 203.133 257.156C203.133 257.072 203.156 256.989 203.2 256.917C203.244 256.845 203.306 256.786 203.381 256.747C204.059 256.398 206.025 257.61 206.247 257.748C206.271 257.764 206.29 257.786 206.302 257.812C206.314 257.839 206.318 257.868 206.313 257.896C206.308 257.924 206.296 257.95 206.276 257.971C206.257 257.992 206.232 258.007 206.204 258.014C205.683 258.146 205.148 258.219 204.61 258.231ZM203.703 256.969C203.639 256.966 203.575 256.978 203.516 257.004C203.486 257.021 203.461 257.045 203.445 257.076C203.429 257.106 203.422 257.14 203.424 257.174C203.411 257.271 203.422 257.369 203.456 257.461C203.491 257.552 203.547 257.634 203.621 257.698C204.303 258.01 205.078 258.049 205.787 257.808C205.151 257.395 204.441 257.11 203.696 256.969H203.703Z" fill="#313FDD"/>
<path d="M206.165 258.017C206.141 258.017 206.117 258.011 206.095 258C205.465 257.657 204.243 256.319 204.372 255.636C204.393 255.53 204.45 255.434 204.534 255.365C204.617 255.296 204.722 255.257 204.831 255.257C204.941 255.243 205.053 255.253 205.159 255.285C205.265 255.317 205.363 255.371 205.447 255.443C206.156 256.023 206.302 257.784 206.307 257.858C206.308 257.884 206.303 257.91 206.292 257.933C206.281 257.956 206.263 257.976 206.242 257.991C206.219 258.007 206.192 258.016 206.165 258.017ZM204.933 255.543H204.867C204.679 255.567 204.663 255.653 204.655 255.691C204.579 256.093 205.357 257.103 205.985 257.58C205.943 256.882 205.692 256.213 205.264 255.66C205.171 255.583 205.054 255.542 204.933 255.543Z" fill="#313FDD"/>
<path d="M179.151 257.084L179.128 257.094C178.172 257.4 176.462 257.833 175.731 257.322C175.623 257.247 175.535 257.147 175.474 257.031C175.413 256.915 175.382 256.785 175.382 256.654C175.376 256.575 175.391 256.496 175.425 256.424C175.459 256.352 175.511 256.291 175.576 256.245C176.262 255.762 178.843 256.712 179.135 256.822C179.16 256.833 179.182 256.851 179.197 256.873C179.213 256.895 179.222 256.922 179.224 256.949C179.226 256.976 179.22 257.003 179.207 257.027C179.194 257.051 179.175 257.072 179.151 257.085V257.084ZM175.779 256.458L175.745 256.478C175.719 256.496 175.698 256.521 175.685 256.55C175.672 256.579 175.667 256.611 175.672 256.642C175.67 256.729 175.689 256.815 175.728 256.892C175.768 256.969 175.825 257.036 175.896 257.085C176.794 257.366 177.763 257.313 178.626 256.938C177.732 256.541 176.752 256.376 175.778 256.458H175.779Z" fill="#313FDD"/>
<path d="M179.151 257.084C179.117 257.102 179.076 257.105 179.039 257.093C178.271 256.848 176.676 255.7 176.705 255.003C176.713 254.839 176.806 254.625 177.196 254.54C177.337 254.509 177.482 254.507 177.624 254.534C177.766 254.561 177.901 254.616 178.02 254.697C178.646 255.295 179.068 256.076 179.225 256.927C179.23 256.952 179.229 256.978 179.221 257.002C179.213 257.026 179.199 257.047 179.181 257.065C179.172 257.072 179.162 257.079 179.151 257.084ZM177.097 254.883C176.998 254.936 176.995 254.998 176.994 255.022C176.973 255.441 178.075 256.36 178.874 256.723C178.726 256.043 178.373 255.424 177.862 254.951C177.775 254.891 177.676 254.849 177.571 254.829C177.467 254.809 177.36 254.811 177.256 254.834C177.201 254.843 177.148 254.859 177.097 254.883Z" fill="#313FDD"/>
<path d="M216.942 74.5551C216.786 76.939 216.506 79.1589 216.215 81.4512C215.924 83.7435 215.532 85.9901 215.103 88.2573C214.252 92.888 212.996 97.435 211.35 101.846L210.624 103.555L210.441 103.982L210.395 104.088L210.32 104.25L210.107 104.671C209.826 105.183 209.489 105.661 209.102 106.098C208.465 106.815 207.72 107.428 206.895 107.915C206.226 108.313 205.525 108.653 204.799 108.932C202.38 109.805 199.85 110.333 197.284 110.501C192.625 110.849 187.941 110.674 183.32 109.98L183.487 105.401L186.716 105.036C187.799 104.908 188.875 104.741 189.946 104.593C192.083 104.278 194.198 103.927 196.215 103.459C198.079 103.079 199.892 102.478 201.615 101.669C202.079 101.473 202.486 101.163 202.796 100.766C202.815 100.661 202.582 101.121 202.857 100.386L203.34 98.9745C204.523 94.9265 205.428 90.8024 206.049 86.6311C206.396 84.5072 206.692 82.364 206.979 80.215C207.266 78.0659 207.502 75.8726 207.728 73.8121L216.942 74.5551Z" fill="#FFC3BD"/>
<path d="M217.474 70.1299C220.462 75.1414 217.917 90.8923 217.917 90.8923L202.261 87.9988C202.261 87.9988 201.413 78.989 204.394 72.0559C207.63 64.5099 213.854 64.058 217.474 70.1299Z" fill="#313FDD"/>
<path d="M179.101 119.567L170.793 80.9224C170.394 79.2722 169.47 77.7963 168.159 76.7173C166.848 75.6383 165.222 75.0147 163.526 74.9405H131.692C133.389 75.0144 135.015 75.6379 136.326 76.7169C137.637 77.7959 138.562 79.2719 138.961 80.9224L147.269 119.567C147.668 121.217 148.592 122.693 149.903 123.772C151.214 124.851 152.84 125.475 154.536 125.549H186.368C184.672 125.475 183.046 124.851 181.735 123.772C180.425 122.693 179.5 121.217 179.101 119.567Z" fill="#263238"/>
<path opacity="0.7" d="M179.101 119.567L170.793 80.9224C170.394 79.2722 169.47 77.7963 168.159 76.7173C166.848 75.6383 165.222 75.0147 163.526 74.9405H131.692C133.389 75.0144 135.015 75.6379 136.326 76.7169C137.637 77.7959 138.562 79.2719 138.961 80.9224L147.269 119.567C147.668 121.217 148.592 122.693 149.903 123.772C151.214 124.851 152.84 125.475 154.536 125.549H186.368C184.672 125.475 183.046 124.851 181.735 123.772C180.425 122.693 179.5 121.217 179.101 119.567Z" fill="#313FDD"/>
<path d="M131.692 74.9405H163.525C161.895 74.971 160.332 75.5958 159.131 76.6973C157.929 77.7988 157.171 79.3013 156.999 80.9224L148.741 170.725C148.569 172.345 147.811 173.848 146.61 174.949C145.408 176.051 143.846 176.676 142.216 176.706H122.347C121.582 176.721 120.822 176.571 120.119 176.268C119.416 175.965 118.786 175.515 118.272 174.949C117.757 174.382 117.369 173.712 117.134 172.984C116.899 172.255 116.822 171.485 116.909 170.725L125.168 80.9224C125.34 79.3016 126.098 77.7993 127.299 76.6978C128.5 75.5963 130.063 74.9714 131.692 74.9405Z" fill="#313FDD"/>
<path d="M136.777 170.723C136.69 171.484 136.766 172.254 137.001 172.982C137.236 173.711 137.624 174.381 138.139 174.947C138.654 175.513 139.284 175.963 139.987 176.266C140.69 176.57 141.45 176.719 142.215 176.705H110.382C109.617 176.719 108.857 176.57 108.154 176.267C107.451 175.964 106.821 175.514 106.306 174.948C105.791 174.381 105.403 173.711 105.168 172.983C104.933 172.254 104.857 171.484 104.944 170.723H136.777Z" fill="#263238"/>
<path opacity="0.7" d="M136.777 170.723C136.69 171.484 136.766 172.254 137.001 172.982C137.236 173.711 137.624 174.381 138.139 174.947C138.654 175.513 139.284 175.963 139.987 176.266C140.69 176.57 141.45 176.719 142.215 176.705H110.382C109.617 176.719 108.857 176.57 108.154 176.267C107.451 175.964 106.821 175.514 106.306 174.948C105.791 174.381 105.403 173.711 105.168 172.983C104.933 172.254 104.857 171.484 104.944 170.723H136.777Z" fill="#313FDD"/>
<path opacity="0.5" d="M151.482 85.0019H129.942C129.775 85.0042 129.611 84.971 129.458 84.9047C129.305 84.8384 129.169 84.7403 129.057 84.6171C128.945 84.4939 128.861 84.3483 128.81 84.1901C128.759 84.0318 128.742 83.8645 128.76 83.6991C128.798 83.3465 128.964 83.0198 129.225 82.7801C129.487 82.5404 129.826 82.404 130.181 82.3964H151.719C151.885 82.3941 152.05 82.4273 152.203 82.4936C152.355 82.5599 152.492 82.6579 152.604 82.7811C152.715 82.9044 152.8 83.0499 152.851 83.2082C152.902 83.3665 152.919 83.5338 152.9 83.6991C152.862 84.0513 152.697 84.3776 152.436 84.6172C152.176 84.8568 151.837 84.9935 151.482 85.0019Z" fill="white"/>
<path opacity="0.5" d="M150.841 92.0487H129.3C129.134 92.0509 128.969 92.0178 128.816 91.9515C128.664 91.8851 128.527 91.7871 128.415 91.6639C128.304 91.5407 128.219 91.3951 128.168 91.2369C128.117 91.0786 128.1 90.9112 128.119 90.7459C128.157 90.3933 128.322 90.0666 128.584 89.8269C128.845 89.5872 129.185 89.4508 129.539 89.4432H151.08C151.246 89.4409 151.411 89.4741 151.564 89.5404C151.716 89.6067 151.853 89.7048 151.965 89.828C152.077 89.9512 152.161 90.0967 152.212 90.255C152.263 90.4133 152.28 90.5806 152.262 90.7459C152.224 91.0987 152.059 91.4255 151.797 91.6653C151.536 91.9051 151.196 92.0414 150.841 92.0487Z" fill="white"/>
<path opacity="0.5" d="M144.918 99.0955H128.658C128.491 99.0978 128.326 99.0646 128.174 98.9983C128.021 98.932 127.885 98.8339 127.773 98.7107C127.661 98.5875 127.577 98.4419 127.526 98.2837C127.474 98.1254 127.458 97.9581 127.476 97.7927C127.514 97.4401 127.68 97.1135 127.941 96.8737C128.203 96.634 128.542 96.4977 128.897 96.49H145.157C145.324 96.4878 145.489 96.5209 145.641 96.5872C145.794 96.6535 145.93 96.7516 146.042 96.8748C146.154 96.998 146.238 97.1436 146.289 97.3018C146.34 97.4601 146.357 97.6274 146.339 97.7927C146.301 98.1454 146.135 98.4721 145.874 98.7118C145.612 98.9515 145.273 99.0879 144.918 99.0955Z" fill="white"/>
<path opacity="0.5" d="M133.535 106.141H128.021C127.855 106.143 127.69 106.11 127.537 106.044C127.385 105.977 127.248 105.879 127.136 105.756C127.024 105.633 126.94 105.487 126.889 105.329C126.838 105.171 126.821 105.003 126.839 104.838C126.877 104.486 127.042 104.159 127.303 103.919C127.565 103.679 127.904 103.543 128.259 103.535H133.774C133.94 103.533 134.105 103.566 134.258 103.633C134.41 103.699 134.547 103.797 134.659 103.92C134.77 104.043 134.855 104.189 134.906 104.347C134.957 104.505 134.974 104.673 134.955 104.838C134.917 105.191 134.752 105.517 134.49 105.757C134.229 105.997 133.889 106.133 133.535 106.141Z" fill="white"/>
<path opacity="0.5" d="M148.918 113.188H127.371C127.205 113.19 127.04 113.157 126.888 113.09C126.735 113.024 126.598 112.926 126.487 112.803C126.375 112.68 126.291 112.534 126.24 112.376C126.188 112.218 126.171 112.05 126.19 111.885C126.228 111.532 126.393 111.206 126.655 110.966C126.916 110.726 127.256 110.59 127.611 110.582H149.151C149.318 110.58 149.483 110.613 149.635 110.679C149.788 110.746 149.924 110.844 150.036 110.967C150.148 111.09 150.232 111.236 150.283 111.394C150.335 111.552 150.352 111.72 150.333 111.885C150.295 112.237 150.13 112.562 149.87 112.802C149.61 113.042 149.272 113.179 148.918 113.188Z" fill="white"/>
<path opacity="0.5" d="M139.793 120.234H126.737C126.57 120.237 126.405 120.204 126.253 120.137C126.1 120.071 125.964 119.973 125.852 119.85C125.74 119.727 125.656 119.581 125.605 119.423C125.554 119.264 125.537 119.097 125.555 118.932C125.593 118.579 125.758 118.253 126.019 118.013C126.28 117.773 126.62 117.637 126.974 117.629H140.031C140.198 117.627 140.362 117.66 140.515 117.726C140.668 117.793 140.804 117.891 140.916 118.014C141.028 118.137 141.112 118.283 141.163 118.441C141.214 118.599 141.231 118.766 141.213 118.932C141.175 119.284 141.01 119.611 140.748 119.85C140.487 120.09 140.148 120.227 139.793 120.234Z" fill="white"/>
<path opacity="0.5" d="M147.637 127.28H126.096C125.93 127.282 125.765 127.249 125.612 127.183C125.46 127.116 125.323 127.018 125.211 126.895C125.1 126.772 125.015 126.626 124.964 126.468C124.913 126.31 124.896 126.142 124.914 125.977C124.953 125.624 125.118 125.298 125.38 125.058C125.641 124.818 125.981 124.682 126.335 124.674H147.878C148.044 124.672 148.209 124.705 148.361 124.771C148.514 124.838 148.651 124.936 148.762 125.059C148.874 125.182 148.958 125.328 149.009 125.486C149.061 125.644 149.078 125.812 149.059 125.977C149.021 126.33 148.855 126.657 148.594 126.897C148.332 127.136 147.992 127.272 147.637 127.28Z" fill="white"/>
<path opacity="0.5" d="M141.715 134.327H125.454C125.288 134.329 125.123 134.296 124.971 134.229C124.818 134.163 124.681 134.065 124.57 133.942C124.458 133.819 124.374 133.673 124.323 133.515C124.271 133.357 124.254 133.189 124.273 133.024C124.311 132.671 124.476 132.345 124.738 132.105C124.999 131.865 125.339 131.729 125.694 131.721H141.954C142.12 131.719 142.285 131.752 142.438 131.818C142.59 131.885 142.727 131.983 142.839 132.106C142.951 132.229 143.035 132.375 143.086 132.533C143.137 132.691 143.154 132.859 143.136 133.024C143.097 133.376 142.932 133.703 142.671 133.943C142.409 134.183 142.07 134.319 141.715 134.327Z" fill="white"/>
<path opacity="0.5" d="M130.33 141.372H124.812C124.646 141.374 124.481 141.341 124.328 141.275C124.176 141.208 124.039 141.11 123.927 140.987C123.815 140.864 123.731 140.718 123.68 140.56C123.629 140.402 123.612 140.235 123.63 140.069C123.669 139.717 123.834 139.39 124.095 139.15C124.357 138.91 124.697 138.774 125.051 138.766H130.572C130.739 138.764 130.903 138.797 131.056 138.864C131.209 138.93 131.345 139.028 131.457 139.151C131.569 139.274 131.653 139.42 131.704 139.578C131.755 139.737 131.772 139.904 131.754 140.069C131.715 140.422 131.55 140.749 131.288 140.989C131.026 141.229 130.685 141.365 130.33 141.372Z" fill="white"/>
<path opacity="0.5" d="M145.712 148.42H124.171C124.005 148.423 123.84 148.389 123.688 148.323C123.535 148.257 123.398 148.159 123.287 148.036C123.175 147.912 123.091 147.767 123.039 147.608C122.988 147.45 122.971 147.283 122.99 147.118C123.028 146.765 123.193 146.438 123.455 146.199C123.716 145.959 124.056 145.822 124.411 145.815H145.951C146.118 145.813 146.282 145.846 146.435 145.912C146.588 145.978 146.724 146.076 146.836 146.2C146.948 146.323 147.032 146.468 147.083 146.627C147.134 146.785 147.151 146.952 147.133 147.118C147.095 147.47 146.929 147.797 146.668 148.037C146.406 148.276 146.067 148.413 145.712 148.42Z" fill="white"/>
<path opacity="0.5" d="M136.591 155.466H123.535C123.368 155.468 123.203 155.435 123.051 155.368C122.898 155.302 122.762 155.204 122.65 155.081C122.538 154.958 122.454 154.812 122.403 154.654C122.351 154.495 122.334 154.328 122.353 154.163C122.391 153.81 122.556 153.483 122.818 153.243C123.079 153.004 123.419 152.867 123.774 152.86H136.829C136.995 152.858 137.16 152.891 137.313 152.957C137.465 153.024 137.602 153.122 137.714 153.245C137.826 153.368 137.91 153.514 137.961 153.672C138.012 153.83 138.029 153.998 138.011 154.163C137.972 154.515 137.807 154.842 137.546 155.081C137.285 155.321 136.946 155.458 136.591 155.466Z" fill="white"/>
<path opacity="0.5" d="M144.432 162.512H122.891C122.725 162.515 122.56 162.482 122.407 162.415C122.255 162.349 122.118 162.251 122.006 162.128C121.894 162.004 121.81 161.859 121.759 161.701C121.708 161.542 121.691 161.375 121.709 161.21C121.748 160.857 121.913 160.53 122.174 160.291C122.436 160.051 122.776 159.915 123.13 159.907H144.668C144.834 159.905 144.999 159.938 145.152 160.004C145.304 160.07 145.441 160.169 145.553 160.292C145.665 160.415 145.749 160.56 145.8 160.719C145.851 160.877 145.868 161.044 145.85 161.21C145.811 161.562 145.647 161.888 145.386 162.128C145.125 162.367 144.786 162.504 144.432 162.512Z" fill="white"/>
<path d="M185.366 105.9L180.69 101.837L178.498 109.316C178.498 109.316 183.248 111.892 184.893 109.528L185.366 105.9Z" fill="#FFC3BD"/>
<path d="M175.594 101.544L174.072 107.813L178.491 109.319L180.683 101.838L175.594 101.544Z" fill="#FFC3BD"/>
</svg>
