<svg width="331" height="331" viewBox="0 0 331 331" fill="none" xmlns="http://www.w3.org/2000/svg">
<path d="M117.124 248.415C119.883 247.438 122.71 246.664 125.581 246.098L125.929 247.373C125.968 247.523 126.059 247.654 126.187 247.742C126.315 247.83 126.47 247.87 126.624 247.853L137.994 246.529C141.122 239.396 146.864 228.589 146.947 228.423C146.864 225.725 146.947 223.458 146.947 220.876C140.443 223.293 128.411 227.877 122.122 230.806C121.98 230.898 121.87 231.032 121.808 231.189C121.745 231.346 121.734 231.519 121.775 231.683C121.775 231.683 121.891 232.097 122.039 232.693C118.961 232.693 109.743 232.246 107.525 234.348C107.18 234.828 107.011 235.413 107.045 236.003C106.913 238.287 108.055 256.028 109.875 261.242C110.819 263.972 112.805 263.675 114.162 261.06C115.732 257.122 116.741 252.982 117.157 248.763C117.157 248.548 117.108 248.564 117.124 248.415ZM115.221 233.603C117.24 233.438 117.869 233.471 122.205 233.338C122.983 236.284 124.588 242.342 125.416 245.436C122.496 245.889 119.614 246.558 116.793 247.439C115.914 242.874 115.389 238.249 115.221 233.603Z" fill="#313FDD"/>
<path d="M269.451 88.7577C269.864 88.1784 269.335 87.4337 268.888 86.8544C270.154 85.5524 271.558 84.3926 273.075 83.3955C275.636 82.1194 277.977 80.4433 280.01 78.4305C280.854 77.5533 282.442 75.7494 281.847 74.6902C281.251 73.631 280.192 73.5648 278.752 74.1771C279.376 73.5221 279.885 72.7668 280.258 71.9429C280.721 70.652 279.629 69.6093 277.262 70.5692C278.123 69.1956 278.321 67.7557 276.865 67.0606C275.69 66.4979 273.969 67.8385 272.976 68.7156C271.026 70.4193 269.196 72.2552 267.498 74.2102C266.455 72.0256 264.8 69.51 262.731 70.3044C260.663 71.0988 262.268 74.6571 263.327 76.5934L259.57 79.1918C259.003 78.8852 258.361 78.742 257.717 78.778C253.447 79.5062 233.835 94.4343 231.849 94.4343C230.326 94.4343 208.58 84.0078 189.779 80.9957C189.743 80.8829 189.675 80.7827 189.584 80.7066C189.494 80.6305 189.383 80.5815 189.266 80.5654C185.987 80.0058 182.662 79.7565 179.336 79.8207C179.235 79.8274 179.137 79.8561 179.048 79.9047C178.96 79.9533 178.883 80.0206 178.823 80.102H177.433C177.102 78.7615 175.877 75.6666 175.447 74.475C176.572 73.4986 178.128 73.0021 178.939 71.4298C180.428 68.517 180.362 63.4527 179.948 60.2089C181.818 58.7856 181.868 56.5017 181.438 54.1682C181.272 53.2248 180.759 51.0899 179.965 50.5603C179.518 50.2624 178.575 50.5603 177.764 50.8582C176.953 48.9715 176.953 49.8321 177.284 49.0708C177.437 48.7199 177.527 48.3444 177.549 47.9619C178.426 48.2267 180.246 46.4724 179.617 44.1554C179.288 43.326 178.883 42.5283 178.409 41.7722C178.641 41.2095 179.137 40.531 177.582 38.4622C176.912 37.7395 176.042 37.2325 175.083 37.0058H174.321C173.772 36.2085 172.966 35.6242 172.037 35.3508C170.636 34.9934 169.15 35.2014 167.9 35.9301C167.569 36.1783 167.304 36.5093 166.973 36.741C166.225 36.2866 165.366 36.0463 164.491 36.0463C163.615 36.0463 162.756 36.2866 162.008 36.741C161.57 36.9129 161.171 37.1716 160.836 37.5015C160.5 37.8314 160.235 38.2257 160.055 38.6608C159.244 38.381 158.384 38.2733 157.529 38.3445C156.674 38.4158 155.844 38.6644 155.09 39.0746C152.231 40.6249 150.093 43.2327 149.132 46.34C149.105 46.8085 149.105 47.2782 149.132 47.7468H148.95C146.468 47.3827 143.307 53.2745 145.839 57.8588C146.137 58.405 146.517 58.918 146.881 59.5138C147.941 61.1688 147.527 61.6653 149.893 63.6844C150.589 64.2802 150.704 64.2306 151.135 64.5947C151.565 64.9588 151.399 64.7767 151.648 65.7035C151.783 66.2495 152.025 66.7632 152.361 67.2149C152.696 67.6665 153.117 68.0473 153.601 68.335C153.777 69.9538 154.467 71.4735 155.57 72.6711C155.92 73.062 156.327 73.397 156.778 73.6641C156.9 73.7327 157.036 73.7723 157.175 73.7799C157.672 76.8582 158.284 80.8633 158.549 82.568L157.076 83.3624C155.149 84.1378 153.275 85.0389 151.466 86.06C151.324 86.1582 151.224 86.3057 151.184 86.4738C149.43 87.4006 147.775 88.2777 146.832 88.8404C133.691 96.6355 96.3708 148.023 95.9901 150.373C95.9481 150.508 95.9481 150.652 95.9901 150.787C96.525 151.64 97.1768 152.415 97.9265 153.088C97.6955 153.509 97.4179 153.903 97.099 154.263C93.789 156.431 88.824 159.658 86.1594 162.538C85.9725 162.704 85.8323 162.917 85.7526 163.154C85.6729 163.391 85.6565 163.645 85.705 163.891C85.7534 164.137 85.8651 164.365 86.0289 164.555C86.1928 164.744 86.4032 164.887 86.6394 164.97C87.1359 165.136 87.2186 165.086 90.4459 163.315C89.5589 164.093 88.8335 165.038 88.3109 166.096C88.0958 167.006 88.9233 167.536 89.9659 167.37C90.5526 167.216 91.1112 166.971 91.6209 166.642C91.3224 167.103 91.1636 167.64 91.1636 168.189C91.1636 168.738 91.3224 169.276 91.6209 169.737C93.2759 171.822 97.612 165.252 99.8959 163.63C100.823 164.805 102.081 167.552 104.083 166.824C105.821 166.179 103.918 162.356 104.083 161.247C104.756 160.6 105.475 160.003 106.235 159.459C107.511 160.406 108.971 161.077 110.521 161.429C113.252 161.429 141.751 132.665 143.919 130.364C143.141 137.679 139.219 169.075 140.046 175.182C140.427 177.946 147.063 178.343 149.86 178.492C149.016 198.352 148.454 228.44 148.305 228.754C143.919 238.204 142.727 240.786 141.254 243.649C138.573 248.78 127.286 267.713 126.012 272.016C125.83 272.694 125.813 272.959 126.525 274.217C124.392 276.459 122.413 278.842 120.6 281.35C119.69 283.005 123.596 298.43 126.359 303.891C126.988 305.116 128.014 307.003 129.388 306.953C133.526 306.804 133.509 291.942 133.393 287.788C133.392 287.66 133.345 287.536 133.261 287.44C134.011 286.321 134.829 285.249 135.71 284.23C136.236 284.592 136.79 284.913 137.365 285.19C137.928 285.438 138.557 285.008 139.02 284.627C144.531 280.291 174.255 243.252 180.627 225.775C183.523 217.798 187.379 206.776 188.472 198.964C189.139 194.025 189.2 189.023 188.654 184.069C188.654 183.999 188.681 183.932 188.731 183.882C188.781 183.832 188.848 183.804 188.918 183.804C188.989 183.804 189.056 183.832 189.106 183.882C189.155 183.932 189.183 183.999 189.183 184.069C190.012 189.051 190.173 194.121 189.663 199.146C188.438 209.986 179.882 232.577 175.314 240.885C179.253 240.157 187.263 238.568 191.136 237.41C204.045 233.487 215.961 221.787 217.004 208.646C217.341 202.455 217.341 196.251 217.004 190.06C216.892 181.514 215.781 173.01 213.694 164.722C217.202 162.819 220.413 160.585 221.456 158.532C223.69 154.147 217.782 128.908 216.491 121.825C223.557 122.602 235.589 124.009 241.2 119.623C247.621 114.46 261.49 99.9289 269.451 88.7577ZM132.499 286.878C129.52 285.074 125.35 280.787 124.721 277.428C125.399 276.567 126.111 275.773 126.773 274.879C129.016 278.302 131.812 281.327 135.048 283.833C134.139 284.796 133.288 285.813 132.499 286.878ZM264.072 77.0568C264.157 77.0022 264.219 76.9169 264.243 76.8184C264.268 76.7199 264.254 76.6157 264.204 76.5272C263.625 75.4515 261.887 71.6615 263.095 71.2312C263.791 70.9664 264.403 71.3967 264.916 71.976C265.699 72.9698 266.309 74.0889 266.72 75.286C266.751 75.3833 266.807 75.4704 266.883 75.5381C266.96 75.6058 267.053 75.6514 267.153 75.6701C267.254 75.6888 267.357 75.6799 267.453 75.6443C267.549 75.6087 267.633 75.5477 267.696 75.468C269.351 73.631 273.224 69.4438 275.409 68.3184C277.064 67.4578 277.461 69.0466 273.406 72.7538C272.475 73.4639 271.58 74.2207 270.725 75.0212C270.678 75.0861 270.653 75.1643 270.653 75.2446C270.653 75.3248 270.678 75.403 270.725 75.468C270.725 75.8983 271.073 76.3783 271.668 75.9314C273.107 74.6686 274.627 73.502 276.22 72.4394C277.032 71.862 277.977 71.4978 278.967 71.3802C278.47 72.9028 273.853 77.0403 273.456 77.5037C273.33 77.6166 273.253 77.7744 273.242 77.9433C273.232 78.1121 273.288 78.2784 273.398 78.4063C273.509 78.5343 273.665 78.6137 273.834 78.6275C274.003 78.6413 274.17 78.5884 274.3 78.4801C276.137 77.2885 279.348 74.5081 280.456 74.9219C281.565 75.3356 278.272 78.4139 277.444 79.1421C272.694 83.2631 273.919 80.6151 268.425 86.209C266.033 83.589 263.286 81.3162 260.265 79.4566L264.072 77.0568ZM192.162 156.215C191.881 153.932 191.533 151.466 191.103 148.9L191.815 147.957C195.125 143.704 196.118 136.935 195.803 131.622C197.574 139.384 198.981 147.014 200.057 154.594L192.162 156.215ZM167.552 99.5483C163.2 96.2383 156.199 90.5285 152.128 86.6227L158.748 83.3127C164.827 88.9907 170.03 95.5385 174.189 102.742C180.548 114.424 185.265 126.927 188.207 139.897L164.606 106.516L167.685 100.128C167.725 100.029 167.735 99.9206 167.711 99.8168C167.687 99.713 167.632 99.6191 167.552 99.5483ZM178.74 80.7806C178.839 80.9626 179.981 83.3955 181.719 87.6488C181.719 87.8309 181.405 91.9684 181.256 93.4248C179.143 92.5875 177.151 91.4745 175.331 90.1148C175.695 88.6749 177.333 82.1377 177.449 80.6647L178.74 80.7806ZM172.865 98.5553C172.981 98.2574 173.097 97.8602 173.229 97.3968L174.338 97.976C174.967 98.3898 174.718 97.132 175.281 100.773C175.281 101.385 175.447 102.064 175.48 102.809C174.718 101.435 173.775 99.962 172.881 98.5553H172.865ZM171.938 97.1651C168.811 92.7302 165.252 88.6167 161.313 84.885L173.775 90.2968C173.295 91.4388 172.6 94.9308 171.955 97.1651H171.938ZM184.665 106.863C183.01 102.345 181.736 97.2975 181.107 95.9735C181.144 95.5606 181.144 95.1451 181.107 94.7322C181.346 94.8213 181.597 94.877 181.852 94.8977C182.011 94.8995 182.166 94.8436 182.288 94.7402C182.409 94.6367 182.49 94.4929 182.514 94.335C182.646 93.7889 182.861 91.025 182.894 90.4127C187.709 102.568 191.728 115.023 194.926 127.7C185.575 107.807 187.015 113.566 184.682 106.863H184.665ZM198.352 138.457C194.578 120.368 187.942 97.8105 180.395 81.095C183.167 81.0965 185.934 81.3179 188.67 81.757C190.077 94.335 188.902 93.9047 189.845 94.4012C190.789 94.8977 196.465 97.1816 197.309 97.5292C197.226 98.8035 198.418 135.247 198.368 138.457H198.352ZM179.303 51.6195C180.166 53.5023 180.47 55.593 180.18 57.6437C180.045 58.1656 179.768 58.6399 179.38 59.0137C178.992 59.3876 178.507 59.6464 177.981 59.7614C177.454 59.8763 176.906 59.8428 176.397 59.6647C175.888 59.4866 175.439 59.1708 175.099 58.7525C174.309 57.089 173.715 55.3396 173.328 53.5393C173.775 52.96 178.541 51.8015 179.303 51.6195ZM156.53 68.1695C155.925 67.8942 155.307 67.6511 154.676 67.4413C154.253 67.2674 153.876 66.999 153.573 66.6565C153.269 66.3141 153.049 65.9068 152.927 65.4659C152.806 65.0249 152.787 64.562 152.872 64.1126C152.957 63.6633 153.144 63.2394 153.419 62.8735C154.461 61.9963 155.405 62.046 156.265 63.3534C156.811 64.363 156.795 64.4457 157.043 64.545C157.114 64.5764 157.191 64.5922 157.269 64.5914C157.347 64.5905 157.424 64.5731 157.494 64.5401C157.565 64.5072 157.627 64.4596 157.678 64.4005C157.729 64.3414 157.766 64.2722 157.788 64.1975C158.033 63.1615 158.072 62.0875 157.904 61.0364C157.705 59.8945 157.672 54.8302 157.705 54.6647C158.188 54.9195 158.732 55.0395 159.277 55.0122C162.273 54.8964 162.869 53.3572 164.06 52.0994C165.434 52.2318 165.715 52.8938 167.271 52.0994C167.999 51.685 168.668 51.1727 169.257 50.5768C169.733 50.7716 170.192 51.004 170.631 51.2719C171.622 51.7489 172.741 51.8954 173.822 51.6898C174.904 51.4843 175.891 50.9376 176.638 50.13C176.82 50.4775 176.986 50.8251 177.135 51.1892C175.614 51.6611 174.182 52.3826 172.898 53.3241C172.617 53.6717 173.03 55.5584 173.13 56.0052C171.743 56.1796 170.402 56.6118 169.174 57.2796C168.926 56.419 168.38 54.8136 167.519 54.3668C167.26 54.2875 166.984 54.2875 166.725 54.3668C165.235 54.5985 159.89 56.2038 159.244 57.081C158.682 57.6933 160.287 62.4266 160.783 63.2045C162.687 66.1504 168.264 65.2898 169.307 61.8474C169.565 60.6921 169.565 59.494 169.307 58.3388C169.787 58.3388 171.226 57.8257 171.392 57.7761C172.534 60.3413 172.865 60.4903 174.189 63.2541C174.007 63.4031 173.709 63.6513 173.461 63.8168C172.286 64.5947 172.037 64.4623 172.104 64.7933C172.123 64.859 172.165 64.9154 172.223 64.9519C172.281 64.9885 172.35 65.0027 172.418 64.9919C173.113 64.8926 173.791 64.7035 174.437 64.4292C174.824 64.285 175.142 64.0017 175.331 63.6348C175.794 62.5921 173.229 58.6698 172.219 57.4947C172.418 57.4947 172.881 57.1637 173.229 56.9817C173.692 58.8353 174.007 60.2917 175.794 61.0199C176.311 61.2149 176.861 61.3037 177.413 61.2809C177.965 61.2582 178.506 61.1244 179.005 60.8875C179.27 63.8003 179.22 68.5336 177.83 71.1154C177.118 72.4559 175.364 72.969 174.239 74.0778C173.908 74.3923 174.123 74.8391 174.239 75.3191C176.076 80.433 176.109 80.4165 176.009 81.0785C175.522 83.8261 174.842 86.536 173.974 89.188C173.56 89.0059 168.909 86.54 159.807 82.9983C159.526 81.1281 158.02 71.1485 157.54 69.3114C157.573 68.666 157.49 68.517 156.53 68.0867V68.1695ZM168.115 61.4171C167.585 63.221 165.086 63.9989 163.299 63.5024C161.512 63.0059 161.396 62.0956 160.552 59.9441C160.156 59.1222 159.883 58.2468 159.741 57.3458C160.287 56.75 166.261 55.5253 167.006 55.4094C168.051 57.1964 168.443 59.2905 168.115 61.3343V61.4171ZM103.355 160.783C102.726 161.396 103.57 163.398 103.702 165.136C103.702 165.285 103.702 165.93 103.603 165.98C102.693 166.278 101.849 164.904 101.336 164.077C100.823 163.249 100.31 162.124 99.4987 162.422C97.8437 163.2 94.0041 168.297 92.4981 168.827C91.7368 167.37 96.0894 163.216 96.2384 162.984C96.3022 162.878 96.3357 162.756 96.3351 162.632C96.3345 162.508 96.2999 162.386 96.2351 162.281C96.1702 162.175 96.0776 162.089 95.9673 162.032C95.857 161.975 95.7332 161.95 95.6095 161.958C95.3116 161.958 95.113 162.223 94.6496 162.637C93.2401 164.012 91.6268 165.162 89.8666 166.046C91.4625 164.215 93.1704 162.485 94.9806 160.866C95.0699 160.774 95.1328 160.66 95.1626 160.535C95.1626 160.535 94.8151 159.658 94.1365 160.005C93.1766 160.535 88.5095 163.233 87.0366 163.928C86.838 163.795 86.9538 163.597 87.0366 163.398C89.3701 160.535 94.5006 157.06 97.6451 154.858C98.0142 154.478 98.3213 154.043 98.5554 153.567C100.733 155.594 103.056 157.458 105.506 159.145C104.752 159.64 104.033 160.187 103.355 160.783ZM141.867 175.827C141.503 175.596 141.238 175.38 141.188 175.082C140.278 168.33 145.342 130.066 145.259 128.56C145.259 128.472 145.242 128.385 145.208 128.303C145.173 128.222 145.123 128.148 145.06 128.086C144.997 128.025 144.922 127.976 144.839 127.944C144.757 127.912 144.669 127.896 144.581 127.898C143.737 127.898 145.226 127.898 124.142 148.089C122.751 149.397 112.126 159.559 110.356 160.237C107.923 160.055 98.7705 152.757 97.281 150.456C100.161 144.63 135.081 96.7017 147.163 89.37C148.09 88.8073 149.678 87.9302 151.416 87.0034C152.017 87.5701 152.665 88.085 153.352 88.5425C157.192 92.1835 162.538 96.7182 166.592 100.128L163.431 106.4C163.383 106.483 163.358 106.577 163.358 106.673C163.358 106.769 163.383 106.863 163.431 106.946C189.1 143.77 188.72 143.356 188.885 143.356C190.531 151.865 191.554 160.483 191.947 169.141C191.947 171.475 191.947 171.276 192.046 171.11C192.146 170.945 192.046 171.226 192.046 171.226C188.041 175.596 148.404 179.667 141.867 175.827ZM233.355 120.997C225.858 122.04 217.384 120.484 215.746 120.418C214.835 116.006 213.021 111.83 210.417 108.154C210.377 108.101 210.319 108.064 210.253 108.052C210.187 108.04 210.12 108.052 210.063 108.088C210.007 108.124 209.966 108.179 209.948 108.244C209.931 108.308 209.939 108.377 209.97 108.436C210.93 110.388 214.141 118.812 214.935 120.865C214.687 121.659 222.416 153.617 220.231 157.92C218.278 161.809 206.908 166.708 202.804 168.115C201.992 158.901 200.666 149.74 198.832 140.675C199.395 135.909 198.666 107.575 198.451 97.0989C198.445 96.9771 198.404 96.8597 198.334 96.7601C198.264 96.6605 198.167 96.5829 198.054 96.5362L190.623 93.4082C190.589 89.4752 190.341 85.547 189.878 81.6412C208.431 84.8519 230.045 95.4604 231.849 95.477C234.464 95.477 253.894 80.582 257.915 79.9862C259.703 79.7048 267.382 86.4076 268.276 88.2612C260.431 99.2173 246.645 113.616 240.256 118.597C238.199 119.973 235.823 120.799 233.355 120.997Z" fill="#313FDD"/>
<path d="M166.41 58.107C166.39 57.9983 166.348 57.8948 166.287 57.8023C166.226 57.7098 166.148 57.6302 166.057 57.5679C165.965 57.5057 165.862 57.4621 165.754 57.4396C165.646 57.417 165.534 57.4161 165.426 57.4367C165.317 57.4574 165.213 57.4992 165.121 57.5599C165.028 57.6206 164.949 57.6988 164.886 57.7903C164.824 57.8817 164.781 57.9845 164.758 58.0928C164.736 58.2011 164.735 58.3128 164.755 58.4215C165.086 60.0765 165.152 60.4571 165.881 60.4571C166.018 60.4576 166.154 60.4237 166.275 60.3586C166.396 60.2934 166.499 60.1991 166.575 60.0841C166.651 59.969 166.696 59.837 166.708 59.6998C166.72 59.5627 166.697 59.4248 166.642 59.2986C166.592 59.0338 166.443 58.256 166.41 58.107ZM171.475 69.0631C172.55 69.3776 173.576 68.8645 173.543 68.5997C173.51 68.3349 173.543 68.4673 172.087 67.9212C171.11 67.5571 170.035 66.2662 169.654 66.4648C169.273 66.6634 169.853 67.7226 169.985 67.9212C170.339 68.4584 170.864 68.8606 171.475 69.0631ZM201.744 53.3406C199.576 62.4266 197.988 70.1389 197.723 71.678C197.547 72.3477 197.513 73.0467 197.624 73.7302C198.501 75.6004 209.837 79.291 211.277 78.5628C212.717 77.8346 216.457 69.4107 220.81 60.7219C223.477 60.8071 226.145 60.613 228.771 60.1427C231.536 59.6354 234.227 58.7848 236.781 57.6105C242.375 55.0287 248.498 43.9733 249.326 38.4125C249.946 32.3751 248.668 26.2946 245.668 21.0185C231.783 -3.0618 191.053 9.89685 194.363 36.6417C195.308 42.7614 197.855 48.5224 201.744 53.3406ZM211.84 73.0517C211.84 73.3165 211.542 73.2834 210.185 73.0517C207.409 72.7028 204.722 71.8444 202.258 70.5195C201.099 69.8906 200.785 69.7582 200.9 69.4769C201.016 69.1955 201.265 69.2948 203.052 69.7913C203.217 69.7913 208.348 71.4463 209.821 71.9594C211.724 72.82 211.84 72.82 211.84 73.0517ZM211.542 46.1248C213.309 46.2165 215.071 45.8517 216.656 45.0656C218.13 45.7795 219.724 46.2117 221.356 46.34C218.576 51.5201 212.932 62.079 211.112 67.706L204.095 65.7697C205.75 61.6984 209.407 52.1656 211.509 46.1248H211.542ZM210.963 44.7512C209.727 44.5645 208.587 43.9778 207.717 43.0809C206.848 42.1841 206.296 41.0267 206.147 39.7862C205.683 36.4762 207.802 32.769 210.996 33.6461C212.999 34.1923 213.247 35.7811 212.899 37.7836C212.601 39.24 211.526 42.8976 210.93 44.685L210.963 44.7512ZM215.464 40.7792C215.641 39.6962 216.047 38.6636 216.656 37.7505C216.946 37.2528 217.369 36.8462 217.878 36.5771C218.387 36.3079 218.961 36.187 219.536 36.2279C220.76 36.592 221.29 38.909 220.281 40.3654C219.31 41.653 218.102 42.7428 216.722 43.5761C216.247 43.2974 215.869 42.88 215.638 42.38C215.408 41.88 215.335 41.3214 215.431 40.7792H215.464ZM200.255 19.7441C207.669 10.8237 221.621 7.28196 231.7 10.9561C237.175 12.8355 241.781 16.6411 244.659 21.6639C247.512 26.6844 248.733 32.4685 248.151 38.2139C247.389 43.361 241.531 54.0523 236.384 56.4189C231.678 58.5655 226.543 59.6071 221.373 59.4641C220.81 59.4641 220.214 59.4641 219.999 59.8613C219.023 61.8473 217.235 65.6869 215.481 69.2948C214.27 68.7099 213.013 68.2229 211.724 67.8384C213.644 62.3438 219.701 51.5532 222.581 46.3234C225.076 46.5372 227.584 46.104 229.863 45.0656C230.479 44.7415 230.989 44.2485 231.334 43.6445C231.68 43.0405 231.846 42.3505 231.813 41.6555C231.78 40.9605 231.549 40.2894 231.148 39.7208C230.747 39.1522 230.192 38.7099 229.549 38.4456C226.983 37.1878 224.683 40.1999 223.342 42.7321C222.978 43.3941 222.564 44.1719 222.101 45.0491C220.762 44.9611 219.442 44.6882 218.179 44.2381C219.437 43.3536 220.554 42.282 221.489 41.0605C222.013 40.2692 222.278 39.3348 222.249 38.3862C222.219 37.4376 221.896 36.5215 221.323 35.7645C220.874 35.2424 220.249 34.9022 219.566 34.8077C218.884 34.7132 218.19 34.871 217.616 35.2515C216.457 35.9636 215.528 36.9952 214.941 38.2224C214.354 39.4495 214.133 40.82 214.306 42.1694C214.486 42.931 214.896 43.6187 215.481 44.1388C214.395 44.5884 213.23 44.8136 212.055 44.8008C212.717 42.8479 213.793 39.3228 214.074 37.8829C214.251 37.062 214.29 36.2176 214.19 35.3839C214.062 34.6682 213.73 34.0047 213.234 33.4733C212.738 32.9418 212.098 32.5651 211.393 32.3883C207.372 31.2464 204.409 35.6983 204.988 39.8524C205.152 41.341 205.791 42.7373 206.81 43.8343C207.83 44.9314 209.176 45.6707 210.648 45.9428C208.53 51.9008 205.22 61.5163 203.565 65.6207L199.924 64.6774C202.258 52.96 202.539 53.2413 202.208 53.0924C198.447 48.2979 196.041 42.5827 195.24 36.5424C194.85 33.5472 195.095 30.5035 195.959 27.6093C196.823 24.7151 198.287 22.0352 200.255 19.7441ZM223.226 45.1484C224.385 43.0465 226.702 38.4456 228.953 39.571C229.403 39.7524 229.795 40.0533 230.087 40.4412C230.378 40.8291 230.558 41.2893 230.608 41.7722C230.575 44.685 226.04 45.198 223.16 45.1484H223.226ZM286.58 52.4469C288.574 51.274 290.93 50.8736 293.2 51.3215C295.693 51.3661 298.075 52.3631 299.857 54.108C301.639 55.8529 302.685 58.2134 302.782 60.7054C301.283 59.8353 299.53 59.5081 297.817 59.7786C293.663 60.1427 288.235 62.3935 288.963 66.3986C289.559 69.7086 293.928 69.2617 297.238 68.368C300.548 67.4743 303.179 65.8524 303.858 62.6583C307.88 65.5876 308.823 70.7181 308.988 75.7328C308.988 75.803 309.016 75.8703 309.066 75.92C309.116 75.9697 309.183 75.9976 309.253 75.9976C309.324 75.9976 309.391 75.9697 309.441 75.92C309.49 75.8703 309.518 75.803 309.518 75.7328C309.634 70.1223 308.624 64.6277 304.04 61.4336C304.087 59.9967 303.842 58.5651 303.32 57.2256C302.798 55.8861 302.009 54.6666 301.002 53.6407C299.995 52.6149 298.79 51.8041 297.46 51.2576C296.13 50.711 294.704 50.44 293.266 50.4609C290.969 50.1254 288.626 50.6056 286.646 51.818C286.034 52.1159 286.315 52.5628 286.58 52.4469ZM301.673 64.3133C299.803 66.7627 294.507 68.037 292.058 67.6233C291.148 67.4743 290.403 67.0937 290.204 66.1503C289.608 62.8403 295.318 61.0364 298.728 60.9205C300.116 60.8141 301.5 61.169 302.666 61.9301C302.541 62.7953 302.2 63.615 301.673 64.3133ZM279 33.1C280.771 30.9154 279.579 27.1089 274.631 27.0923C272.711 27.0923 271.784 29.0452 271.917 30.9154C272.214 35.3673 277.229 35.2349 279 33.1ZM273.075 30.8326C273.075 29.7403 273.588 28.317 274.73 28.3336C277.395 28.3336 278.619 29.5748 278.619 30.9485C278.553 34.0764 272.86 35.6983 273.075 30.8326ZM272.396 218.46C257.849 212.651 251.097 240.769 239.214 264.932C239.139 265.948 239.172 266.969 239.313 267.978C239.313 270.51 239.594 287.275 241.067 289.178C241.465 289.939 243.136 289.178 243.914 288.698C250.52 284.608 256.746 279.934 262.516 274.73C262.565 274.674 262.602 274.608 262.625 274.537C262.648 274.466 262.656 274.391 262.648 274.316C265.727 269.93 277.262 247.091 280.059 235.639C282.012 227.529 280.076 221.489 272.396 218.46ZM277.593 239.478C269.805 238.481 262.275 236.021 255.4 232.23C259.272 224.898 264.055 216.54 271.95 219.685C280.738 223.177 280.556 230.409 277.593 239.429V239.478ZM250.054 282.508C249.546 282.082 248.99 281.716 248.399 281.416C246.163 280.279 243.579 280.031 241.167 280.721C241.001 278.752 240.058 265.942 240.058 265.826C252.454 270.361 248.631 268.391 260.911 274.498C259.62 275.723 254.771 279.116 250.054 282.475V282.508ZM258.594 234.613C260.208 235.495 261.865 236.296 263.559 237.013C259.765 242.971 256.413 249.2 253.529 255.648C250.749 261.457 250.848 261.424 248.018 267.762C246.363 267.233 244.708 266.736 243.053 266.24C244.841 262.682 257.551 236.665 258.594 234.58V234.613ZM248.664 267.928C254.043 258.279 259.521 246.281 264.221 237.228C265.876 237.923 267.531 238.485 269.186 238.982C268.309 240.637 265.743 245.039 265.065 246.314C264.386 247.588 257.584 260.993 257.104 262.02C256.343 263.675 254.258 268.292 253.612 269.765C251.924 269.02 250.302 268.458 248.598 267.895L248.664 267.928ZM254.208 269.98C255.218 268.143 259.372 260.431 259.885 259.438C260.662 257.899 269.335 240.174 269.815 239.147C271.337 239.578 272.943 239.942 273.969 240.14C270.94 248.415 262.218 264.353 259.074 272.214C256.211 270.874 255.565 270.543 254.142 269.947L254.208 269.98ZM255.218 232.71L258.18 234.365C252.21 244.531 247.01 255.131 242.623 266.074L240.141 265.313C249.756 244.824 250.203 242.143 255.151 232.676L255.218 232.71ZM262.036 273.654L259.537 272.463C262.235 267.167 270.675 253.579 274.531 240.256C275.458 240.422 276.368 240.571 277.246 240.687C272.993 252.035 267.886 263.044 261.97 273.621L262.036 273.654ZM210.185 284.395C210.845 283.849 211.316 283.11 211.533 282.281C211.75 281.453 211.701 280.577 211.393 279.778C211.253 278.625 210.724 277.554 209.894 276.741C209.064 275.929 207.981 275.423 206.826 275.307C205.67 275.192 204.509 275.473 203.534 276.105C202.56 276.737 201.829 277.682 201.463 278.785C199.345 277.411 197.044 275.955 194.843 274.564C196.498 272.363 201.364 273.34 201.86 275.144C201.871 275.214 201.91 275.277 201.967 275.319C202.025 275.361 202.096 275.378 202.167 275.367C202.237 275.356 202.3 275.318 202.342 275.26C202.384 275.203 202.401 275.131 202.39 275.061C202.142 272.181 196.151 270.493 193.734 273.886C191.599 272.578 188.951 270.99 186.734 269.781C188.637 268.126 192.89 269.053 193.354 270.775C193.375 270.833 193.417 270.883 193.472 270.913C193.527 270.944 193.591 270.955 193.652 270.943C193.714 270.931 193.769 270.897 193.809 270.848C193.848 270.799 193.868 270.738 193.867 270.675C193.652 267.994 188.107 266.19 185.592 269.136C184.538 268.545 183.429 268.058 182.282 267.68C182.072 267.593 181.842 267.568 181.618 267.609C181.395 267.65 181.189 267.755 181.024 267.911C176.837 273.125 162.72 286.663 156.199 288.235C156.035 288.259 155.88 288.327 155.751 288.43C155.621 288.534 155.521 288.669 155.461 288.824C155.4 288.978 155.382 289.146 155.407 289.31C155.432 289.474 155.499 289.628 155.603 289.757C157.035 291.211 158.675 292.443 160.469 293.415C158.814 295.07 157.523 296.559 156.563 297.635C156.066 298.165 155.802 308.293 156.232 310.528C156.296 310.746 156.437 310.934 156.629 311.057C158.714 312.481 185.575 324.099 188.322 322.543C190.16 321.5 212.088 298.678 212.436 297.983C212.965 296.89 212.783 289.608 212.75 286.696C212.618 285.818 210.979 284.875 210.185 284.395ZM157.225 306.258V302.567C164.093 305.877 179.816 312.629 185.774 314.516C187.296 315.013 187.429 314.946 188.223 314.516C192.774 311.603 208.844 293.498 211.79 290.734V294.226C202.853 303.179 187.677 318.869 187.396 317.975C185.757 317.876 158.648 306.92 157.225 306.258ZM209.771 278.818C210.366 279.82 210.686 280.962 210.698 282.128C210.692 282.499 210.601 282.863 210.432 283.193C210.263 283.523 210.02 283.81 209.722 284.031C208.331 283.104 205.7 281.383 202.589 279.364C204.293 276.004 208.083 275.955 209.705 278.818H209.771ZM156.811 289.41C163.862 287.324 177.25 274.415 181.752 268.822C182.836 269.123 183.88 269.551 184.863 270.096C183.208 273.174 184.979 276.55 185.608 276.07C185.956 275.806 185.327 275.706 185.228 274.085C185.185 272.9 185.453 271.724 186.005 270.675C188.289 271.867 190.97 273.422 193.238 274.73C191.848 277.825 193.519 280.887 194.098 280.44C194.678 279.993 193.834 280.092 193.734 278.47C193.694 277.407 193.898 276.348 194.33 275.375C196.664 276.749 199.047 278.172 201.231 279.513C200.895 280.338 200.761 281.231 200.842 282.118C200.922 283.005 201.215 283.86 201.695 284.61C201.717 284.639 201.744 284.662 201.775 284.68C201.805 284.698 201.84 284.709 201.875 284.714C201.91 284.719 201.946 284.716 201.981 284.707C202.015 284.698 202.047 284.682 202.076 284.66C202.104 284.638 202.127 284.611 202.145 284.58C202.163 284.549 202.175 284.515 202.179 284.48C202.184 284.445 202.181 284.409 202.172 284.374C202.163 284.34 202.147 284.308 202.125 284.279C201.828 283.622 201.681 282.906 201.695 282.185C201.709 281.463 201.885 280.754 202.208 280.109C206.064 282.459 209.175 284.428 210.135 285.074C209.953 285.239 192.692 300.598 186.816 305.165C182.96 304.156 162.72 294.11 156.811 289.41ZM157.44 298.628C164.937 301.938 181.967 309.617 185.89 310.362C186.568 310.495 186.833 310.544 188.124 309.518C193.635 305.099 211.559 286.348 211.724 286.547C211.732 286.596 211.732 286.646 211.724 286.696V290.006C208.034 292.968 187.512 314.516 187.18 313.49C185.525 313.49 158.632 302.517 157.258 301.905C157.225 301.21 157.374 299.356 157.44 298.628ZM187.578 321.434C185.923 322.377 160.717 312.133 157.341 310.048C157.214 308.993 157.153 307.932 157.159 306.87C164.408 310.445 185.492 319.349 187.429 319.266C190.259 319.117 210.268 296.592 211.691 295.02C211.707 295.866 211.624 296.71 211.443 297.536C211.161 298.082 188.67 320.822 187.578 321.434ZM50.4609 228.142C50.5768 229.913 50.6595 231.452 50.6595 232.892C50.6595 233.111 50.7467 233.322 50.9019 233.477C51.0571 233.632 51.2676 233.719 51.487 233.719C51.7065 233.719 51.917 233.632 52.0722 233.477C52.2273 233.322 52.3145 233.111 52.3145 232.892C52.3145 231.352 52.2318 229.83 52.1159 228.026C52.1006 227.806 51.9986 227.602 51.8326 227.458C51.6665 227.313 51.45 227.241 51.2305 227.256C51.011 227.272 50.8067 227.374 50.6623 227.54C50.518 227.706 50.4456 227.922 50.4609 228.142ZM302.633 194.959C302.525 194.965 302.42 194.993 302.322 195.041C302.225 195.089 302.139 195.155 302.068 195.237C301.997 195.319 301.943 195.414 301.909 195.517C301.876 195.62 301.863 195.728 301.872 195.836C301.971 197.359 302.071 198.997 302.071 200.586C302.071 200.805 302.158 201.016 302.313 201.171C302.468 201.326 302.679 201.413 302.898 201.413C303.118 201.413 303.328 201.326 303.483 201.171C303.638 201.016 303.726 200.805 303.726 200.586C303.726 198.931 303.626 197.276 303.51 195.72C303.504 195.612 303.476 195.506 303.429 195.409C303.381 195.312 303.314 195.226 303.232 195.155C303.151 195.084 303.056 195.03 302.953 194.996C302.85 194.963 302.741 194.95 302.633 194.959ZM46.1745 224.021C46.3939 224.021 46.6044 223.934 46.7596 223.778C46.9148 223.623 47.002 223.413 47.002 223.193C47.002 222.974 46.9148 222.763 46.7596 222.608C46.6044 222.453 46.3939 222.366 46.1745 222.366C44.1719 222.366 42.5004 222.515 40.8454 222.482C40.6244 222.482 40.4121 222.568 40.2543 222.723C40.0965 222.878 40.0057 223.088 40.0013 223.309C40.0013 223.529 40.0885 223.739 40.2437 223.894C40.3989 224.049 40.6094 224.137 40.8288 224.137C42.5335 224.17 44.4036 224.104 46.1745 224.021ZM297.503 190.06C295.517 190.06 293.845 190.176 292.174 190.193C291.954 190.193 291.744 190.28 291.589 190.435C291.433 190.59 291.346 190.801 291.346 191.02C291.346 191.24 291.433 191.45 291.589 191.605C291.744 191.76 291.954 191.848 292.174 191.848C293.961 191.848 295.815 191.848 297.602 191.715C297.822 191.702 298.027 191.602 298.173 191.438C298.319 191.273 298.393 191.057 298.38 190.838C298.367 190.619 298.267 190.413 298.102 190.267C297.938 190.122 297.722 190.047 297.503 190.06ZM50.0141 213.793C50.1134 215.315 50.2127 216.954 50.2127 218.543C50.2169 218.761 50.3055 218.969 50.4597 219.123C50.614 219.277 50.822 219.366 51.0402 219.37C51.2596 219.37 51.4701 219.283 51.6253 219.128C51.7805 218.973 51.8677 218.762 51.8677 218.543C51.8677 216.888 51.7684 215.233 51.6691 213.677C51.6537 213.458 51.5518 213.253 51.3857 213.109C51.2197 212.965 51.0031 212.892 50.7836 212.907C50.5642 212.923 50.3598 213.025 50.2155 213.191C50.0712 213.357 49.9987 213.573 50.0141 213.793ZM303.279 186.237C303.279 184.582 303.179 182.927 303.064 181.371C303.048 181.152 302.946 180.948 302.78 180.803C302.614 180.659 302.398 180.586 302.178 180.602C301.959 180.617 301.754 180.719 301.61 180.885C301.466 181.051 301.393 181.268 301.409 181.487C301.508 183.01 301.607 184.648 301.607 186.237C301.607 186.457 301.694 186.667 301.85 186.822C302.005 186.977 302.215 187.065 302.435 187.065C302.656 187.065 302.868 186.978 303.026 186.823C303.184 186.669 303.274 186.458 303.279 186.237ZM62.228 223.806C62.3367 223.801 62.4435 223.776 62.5422 223.73C62.641 223.685 62.7298 223.62 62.8036 223.54C62.8774 223.46 62.9347 223.366 62.9722 223.264C63.0098 223.162 63.0268 223.054 63.0224 222.945C63.0057 222.728 62.9077 222.526 62.7481 222.379C62.5884 222.232 62.379 222.15 62.1618 222.151C60.1592 222.233 58.4877 222.3 56.8161 222.266C56.5967 222.266 56.3862 222.354 56.231 222.509C56.0758 222.664 55.9886 222.874 55.9886 223.094C55.9886 223.313 56.0758 223.524 56.231 223.679C56.3862 223.834 56.5967 223.921 56.8161 223.921C58.587 223.955 60.4406 223.888 62.228 223.806ZM313.556 189.845C311.901 189.928 310.064 189.977 308.227 189.977C308.118 189.973 308.009 189.991 307.907 190.029C307.804 190.068 307.711 190.127 307.632 190.203C307.553 190.279 307.491 190.37 307.448 190.47C307.405 190.571 307.383 190.679 307.383 190.788C307.383 191.009 307.47 191.222 307.624 191.379C307.779 191.537 307.99 191.628 308.211 191.632C310.097 191.632 311.62 191.632 313.622 191.5C313.731 191.496 313.838 191.47 313.937 191.425C314.036 191.379 314.124 191.314 314.198 191.234C314.272 191.154 314.329 191.061 314.367 190.959C314.404 190.857 314.421 190.748 314.417 190.639C314.397 190.424 314.297 190.224 314.139 190.078C313.98 189.931 313.772 189.848 313.556 189.845ZM24.1961 174.768C24.4112 174.933 71.0822 168.016 73.0848 166.791C73.1957 166.71 73.2842 166.602 73.3421 166.478C73.4 166.353 73.4253 166.216 73.4158 166.079C73.4158 163.944 70.6188 143.902 69.2783 138.904C69.1128 138.292 68.9473 137.679 68.5666 137.464C66.0345 135.942 21.4157 144.349 18.7511 146.07C18.6789 146.113 18.6165 146.17 18.568 146.239C18.5195 146.307 18.4861 146.385 18.4698 146.467C17.9071 148.47 22.7562 173.775 24.1961 174.768ZM19.4793 146.865C22.6569 145.425 63.1548 138.01 67.7888 138.59C68.9142 141.486 71.9263 162.703 72.1249 165.814C69.8244 166.493 24.825 174.222 24.6595 174.255C24.494 174.288 24.4774 174.487 24.1299 173.444C22.6735 169.075 19.3966 150.605 19.4793 146.865Z" fill="#9CA2EB"/>
<path d="M76.7258 168.264C76.8158 168.097 76.856 167.907 76.8416 167.718C76.8416 165.086 73.0682 135.875 71.7277 133.542C71.6226 133.37 71.4738 133.229 71.2965 133.133C71.1192 133.037 70.9196 132.99 70.7181 132.996C65.1739 132.317 18.4036 141.453 15.3253 143.588C14.895 143.886 14.9612 144.63 15.0108 145.425C15.2756 149.777 19.9758 178.409 21.6308 178.243C21.8129 178.243 21.7467 178.111 21.3164 178.988C18.7346 184.301 13.8358 201.314 13.9351 204.74C13.9351 206.18 14.2661 208.05 15.6894 207.951C25.9007 206.693 75.9645 198.749 90.363 195.786C90.9257 195.671 91.2898 195.158 91.2732 194.314C91.1033 192.907 90.677 191.544 90.0154 190.292C87.9963 186.502 79.622 171.491 76.7258 168.264ZM21.7301 177.73C20.4392 176.075 15.6894 147.56 16.0535 144.399C19.6945 142.512 65.8359 133.592 70.6685 134.32C71.9925 137.961 75.4183 164.259 75.6335 167.42C69.7748 169.439 29.2107 175.993 21.7301 177.73ZM22.4583 178.227C23.8485 177.879 71.1981 169.952 75.5342 168.81C77.9008 171.011 88.5921 190.027 89.2872 191.649C79.7875 193.304 23.4348 202.721 15.1432 203.979C15.2591 198.964 20.4061 181.438 22.4583 178.227Z" fill="#9CA2EB"/>
<path d="M28.6811 195.389C30.1209 195.174 60.6722 191.5 71.7111 188.504C71.7791 188.487 71.8374 188.443 71.8731 188.382C71.9088 188.322 71.9189 188.25 71.9014 188.182C71.8838 188.114 71.84 188.055 71.7794 188.02C71.7189 187.984 71.6467 187.974 71.5787 187.991C69.4106 188.438 42.9637 191.963 28.648 194.876C28.6084 194.869 28.5678 194.871 28.5291 194.882C28.4904 194.893 28.4547 194.912 28.4248 194.939C28.3948 194.966 28.3713 194.999 28.356 195.036C28.3408 195.074 28.3342 195.114 28.3368 195.154C28.3394 195.194 28.3511 195.233 28.371 195.268C28.3909 195.303 28.4184 195.333 28.4516 195.355C28.4848 195.378 28.5227 195.393 28.5624 195.399C28.6022 195.405 28.6428 195.401 28.6811 195.389ZM51.007 80.2343C50.3888 81.6306 49.8689 83.0685 49.4513 84.5373C49.4267 84.773 49.4917 85.0094 49.6334 85.1993C51.3049 87.7149 68.4342 107.029 72.9027 109.743C73.515 110.124 74.2432 110.388 74.6901 109.842C77.9361 105.803 82.1724 102.673 86.9867 100.756C90.9051 99.37 95.0134 98.5941 99.1675 98.4559C102.478 98.158 103.057 97.827 104.331 95.6589C105.834 92.8057 107.829 90.2398 110.223 88.079C113.276 85.4099 116.664 83.151 120.302 81.3597C120.466 81.2669 120.594 81.122 120.666 80.9481C120.738 80.7742 120.749 80.5812 120.699 80.3998C120.14 78.9762 119.4 77.6302 118.498 76.3947C119.094 76.1961 119.756 76.0141 119.756 75.4183C119.756 73.7633 105.324 52.8772 101.319 48.9383C100.905 48.5245 100.309 47.9784 99.7633 48.0115C91.4883 48.4749 83.4285 56.2865 78.7614 63.1051C73.4157 62.9065 69.9568 62.4265 63.8664 64.9918C59.5668 66.8168 55.6904 69.51 52.48 72.9027C51.9835 73.4157 48.6073 76.9905 48.5576 77.2719C48.508 77.5532 48.6073 77.5532 51.007 80.2343ZM117.207 79.7709C110.306 80.946 105.903 86.6888 102.66 92.9282C101.22 95.7086 101.352 95.841 99.8295 95.8079C97.167 95.6571 94.4962 95.7568 91.8524 96.1058C89.9132 96.3956 88.0066 96.8723 86.1592 97.5291C81.9555 99.0186 77.1395 103.785 74.5742 107.327C74.5197 107.4 74.4504 107.46 74.3709 107.504C74.2914 107.548 74.2034 107.575 74.1128 107.583C74.0222 107.591 73.9309 107.579 73.845 107.55C73.7591 107.52 73.6805 107.472 73.6143 107.409C68.2356 101.865 58.7193 92.1338 53.9364 86.5399C53.7047 86.2916 54.1019 85.9275 54.3336 86.1923C57.4284 89.5023 65.4221 97.4298 73.995 106.052C76.8912 102.362 81.3597 97.8932 85.7786 96.3375C88.1882 95.478 90.6955 94.922 93.2426 94.6825C95.6279 94.5013 98.0235 94.5013 100.409 94.6825C101.385 93.5571 106.218 80.7805 117.174 79.3572C117.206 79.3807 117.232 79.4112 117.251 79.4463C117.27 79.4814 117.28 79.5203 117.282 79.5601C117.283 79.5998 117.276 79.6394 117.26 79.6759C117.244 79.7124 117.221 79.7449 117.19 79.7709H117.207ZM99.7468 49.352C103.057 51.669 116.528 71.6118 118.283 75.1038C115.239 76.0683 112.3 77.3381 109.511 78.8938C106.87 80.2176 104.558 82.1138 102.743 84.4443C100.928 86.7749 99.6555 89.481 99.0186 92.3655C93.0771 82.7003 84.7856 72.0586 79.2744 64.2305C79.6054 64.0153 88.9065 49.9975 99.7468 49.352ZM64.2305 65.902C70.2712 63.4692 73.6143 64.0319 78.6124 64.247C83.5774 72.7206 92.4979 84.6697 98.3731 92.4979C92.9504 91.2147 87.2442 91.9995 82.3693 94.699C79.4399 96.354 75.8651 100.326 73.664 102.792C70.4864 100.243 52.149 80.7143 49.2031 77.4043C53.7378 72.2738 57.9249 68.4176 64.2305 65.8358V65.902ZM33.944 107.989C33.5349 107.702 33.0513 107.539 32.5519 107.522C32.0525 107.504 31.5587 107.632 31.1305 107.889C30.8186 108.028 30.5372 108.228 30.3022 108.475C30.0673 108.723 29.8835 109.015 29.7614 109.334C29.6392 109.653 29.581 109.993 29.5902 110.334C29.5993 110.675 29.6756 111.012 29.8147 111.323C29.9538 111.635 30.153 111.917 30.4009 112.152C30.6487 112.387 30.9404 112.57 31.2593 112.693C31.5782 112.815 31.918 112.873 32.2594 112.864C32.6008 112.855 32.937 112.778 33.2489 112.639C33.7471 112.53 34.2004 112.272 34.5488 111.9C34.8972 111.528 35.1241 111.058 35.1995 110.554C35.2749 110.049 35.1952 109.534 34.9709 109.076C34.7467 108.618 34.3886 108.239 33.944 107.989ZM32.8517 111.299C31.6932 111.663 30.9981 111.299 30.7167 110.736C30.1871 109.561 30.8491 107.757 32.5703 108.287C33.7785 108.733 34.7549 110.769 32.8517 111.381V111.299ZM118.101 32.2559C118.581 33.2323 120.815 32.8682 121.791 32.5538C122.304 32.3883 122.635 32.2062 122.685 31.7097C122.834 30.4685 123 19.711 122.437 18.6683C122.379 18.559 122.29 18.4693 122.181 18.4104C122.072 18.3515 121.948 18.3261 121.824 18.3373C120.059 18.3324 118.302 18.589 116.611 19.0986C115.933 19.5124 117.505 31.1636 118.101 32.2559ZM116.959 19.4958C118.488 19.2771 120.034 19.2051 121.576 19.2807C121.676 20.5054 121.411 31.1139 121.394 31.2794C120.695 31.53 119.948 31.6205 119.21 31.5442C119.094 31.1636 118.895 30.1375 118.647 28.8466C117.918 25.762 117.354 22.6406 116.959 19.4958ZM32.3386 94.0205C32.4974 94.1018 32.6733 94.1442 32.8517 94.1442C33.0301 94.1442 33.2059 94.1018 33.3647 94.0205C34.0041 93.6261 34.5112 93.0498 34.8211 92.3655C34.8632 92.256 34.8762 92.1374 34.8588 92.0214C34.8414 91.9053 34.7942 91.7958 34.7218 91.7035C33.9274 90.7601 25.2552 80.7143 24.196 81.3432C22.8955 82.1851 21.6617 83.1257 20.5054 84.1567C20.4588 84.1983 20.4214 84.2493 20.3958 84.3064C20.3701 84.3634 20.3567 84.4251 20.3564 84.4877C20.3233 85.3483 29.9554 93.0606 32.3386 94.0205ZM24.3946 81.7735C25.6028 82.6506 29.6741 87.6818 33.4475 92.1338C33.2851 92.3894 33.0841 92.6183 32.8517 92.8123C28.8844 90.2732 25.0965 87.4641 21.5149 84.4049C22.4128 83.4622 23.375 82.5829 24.3946 81.7735ZM50.3947 45.2642C50.7588 38.8428 54.4991 35.8638 58.4049 35.1025C57.296 39.1738 57.4781 44.4698 61.4997 45.1483C63.4195 45.4628 64.3629 44.4698 65.7531 43.3113C71.6945 38.3463 66.895 33.3813 60.1923 33.7288C62.6913 26.8771 68.4673 21.2998 76.1299 21.1177C76.2001 21.1177 76.2675 21.0898 76.3172 21.0402C76.3668 20.9905 76.3947 20.9231 76.3947 20.8529C76.3947 20.7827 76.3668 20.7153 76.3172 20.6657C76.2675 20.616 76.2001 20.5881 76.1299 20.5881C67.8549 20.4226 61.3508 26.3806 58.7855 33.8281C54.3667 34.5894 49.9809 37.8994 49.8651 45.1649C49.8585 45.1996 49.8589 45.2354 49.8662 45.27C49.8735 45.3046 49.8875 45.3375 49.9075 45.3667C49.9275 45.3959 49.953 45.4208 49.9827 45.4402C50.0123 45.4595 50.0454 45.4728 50.0802 45.4793C50.115 45.4858 50.1507 45.4854 50.1853 45.4782C50.2199 45.4709 50.2528 45.4568 50.282 45.4369C50.3112 45.4169 50.3362 45.3914 50.3555 45.3617C50.3748 45.3321 50.3881 45.2989 50.3947 45.2642ZM59.8116 34.9039C62.2776 34.7384 65.9517 35.4997 66.9612 37.7339C67.5405 39.0083 66.9612 40.5805 64.909 42.3017C64.3519 42.8599 63.7163 43.3338 63.0223 43.7085C60.5398 44.7677 57.7925 41.7059 59.8116 34.9039ZM64.5449 268.971C62.946 268.542 61.2775 268.438 59.6377 268.664C57.9979 268.89 56.4199 269.442 54.9965 270.287C53.5732 271.132 52.3332 272.254 51.3496 273.585C50.3661 274.916 49.6587 276.431 49.2693 278.04C48.534 281.382 49.1567 284.88 51.0004 287.763C52.844 290.647 55.7575 292.68 59.1 293.415C62.4424 294.15 65.9401 293.527 68.8234 291.684C71.7068 289.84 73.7397 286.927 74.4749 283.584C74.789 281.972 74.7808 280.314 74.451 278.705C74.1211 277.096 73.476 275.568 72.5529 274.21C71.6299 272.851 70.447 271.689 69.0726 270.79C67.6982 269.89 66.1594 269.272 64.5449 268.971ZM69.6589 282.459C68.9948 285.107 67.4051 287.431 65.1771 289.009C62.9491 290.587 60.2299 291.317 57.5112 291.065C55.0154 290.09 52.9435 288.266 51.66 285.913C50.3765 283.561 49.9636 280.832 50.494 278.205C51.1132 275.493 52.6882 273.093 54.9309 271.446C57.1735 269.799 59.9341 269.014 62.7079 269.235C65.2283 270.277 67.3005 272.174 68.5599 274.592C69.8193 277.011 70.185 279.797 69.5927 282.459H69.6589Z" fill="#9CA2EB"/>
<path d="M86.5895 273.687C85.1487 273.19 83.6046 273.071 82.1044 273.34C81.4827 271.914 80.7174 270.556 79.8205 269.285C80.8963 268.309 83.8422 265.594 83.1305 264.32C80.5979 261.291 77.5909 258.692 74.2266 256.624C72.8218 255.837 71.2749 255.337 69.6754 255.151C68.6162 255.3 66.1006 259.421 65.5379 260.348C65.1738 260.348 63.8829 259.934 63.7836 259.885C63.7836 258.693 63.436 254.39 62.3603 253.893C61.1573 253.451 59.9081 253.145 58.6365 252.983C57.4615 252.801 46.886 254.738 46.1082 256.161C45.5951 257.121 46.7867 260.745 47.1343 261.755C46.2417 262.246 45.3845 262.799 44.569 263.41C42.914 264.585 43.3609 264.535 43.063 264.403C42.7029 264.231 42.3172 264.119 41.921 264.072C40.599 263.297 39.0489 263.004 37.5353 263.244C36.0127 263.741 32.4213 271.916 31.8421 274.018C31.6525 274.548 31.6013 275.118 31.6931 275.673C32.0903 276.766 34.7383 277.643 35.8472 277.99C35.541 280.12 35.541 282.282 35.8472 284.412C34.3908 284.809 31.3621 285.703 31.5276 287.192C31.6931 288.682 35.5658 298.512 37.1712 299.29C38.0506 299.782 39.0231 300.085 40.0263 300.179C41.0295 300.273 42.0413 300.156 42.9968 299.836C43.5349 299.568 44.0546 299.264 44.5525 298.926C45.2145 299.423 45.9096 299.869 46.6212 300.3C46.1082 301.574 44.9662 304.421 45.3303 305.712C45.5124 306.39 46.0585 306.605 46.8198 306.887C48.9217 307.648 60.2419 310.362 61.9631 310.064C62.6085 309.965 62.9561 309.286 63.1547 308.641C63.5224 307.172 63.7387 305.669 63.8001 304.156C64.6501 304.072 65.4952 303.945 66.3323 303.775C66.8435 304.675 67.4974 305.485 68.2686 306.175C69.1127 306.771 69.8243 306.473 70.7842 305.861C71.2476 306.456 71.9427 307.284 72.6875 307.367C74.5576 307.582 82.2865 300.3 83.0809 298.81C83.7429 297.569 81.3266 295.351 80.2508 294.375C81.4146 292.624 82.3281 290.719 82.965 288.715C84.1587 288.895 85.3667 288.961 86.5729 288.913C87.1191 288.913 87.748 288.715 87.9797 288.202C88.9892 285.901 88.6913 277.179 87.9797 274.962C87.8804 274.316 87.1356 273.886 86.5895 273.687ZM86.9867 275.21C87.5494 277.361 87.7314 285.487 86.9039 287.589C85.473 287.73 84.0292 287.663 82.6175 287.391C82.4667 287.365 82.3118 287.397 82.1832 287.479C82.0546 287.562 81.9615 287.69 81.9224 287.838C81.2633 290.075 80.24 292.189 78.8937 294.093C78.7978 294.22 78.7546 294.378 78.7731 294.536C78.7916 294.693 78.8705 294.837 78.993 294.938C80.1542 295.858 81.1408 296.979 81.9058 298.248C81.0783 299.605 74.6073 305.53 72.8199 306.026C72.5551 306.026 71.8269 305.033 71.6448 304.768C71.0335 303.85 70.4807 302.893 69.9898 301.905C69.9182 301.761 69.7953 301.649 69.6453 301.591C69.4953 301.533 69.3289 301.533 69.1789 301.591C64.3794 303.395 62.5589 302.335 62.5589 303.527C62.561 305.311 62.2703 307.083 61.6983 308.773C57.809 308.35 53.9788 307.496 50.2788 306.225C50.4575 304.458 50.9507 302.737 51.7352 301.144C52.2317 300.035 50.2457 300.349 46.5385 296.576C46.4192 296.465 46.2625 296.404 46.0999 296.404C45.9373 296.404 45.7807 296.465 45.6613 296.576C44.0063 297.933 41.8548 299.257 41.4245 299.042C40.5805 298.628 36.6912 289.807 36.4595 288.02C37.6367 287.199 38.973 286.636 40.3819 286.365C40.5321 286.322 40.6619 286.227 40.7471 286.096C40.8323 285.965 40.8672 285.808 40.8453 285.653C40.4397 283.309 40.4397 280.913 40.8453 278.57C40.8706 278.425 40.8402 278.277 40.7604 278.154C40.6806 278.031 40.5571 277.943 40.415 277.908C39.1673 277.581 37.9661 277.097 36.8402 276.468C36.4761 276.203 36.5092 276.219 36.5423 275.938C37.6135 272.075 39.3314 268.421 41.6231 265.131C42.5168 264.883 44.9331 266.654 45.7606 267.282C45.8471 267.366 45.9629 267.413 46.0834 267.413C46.2039 267.413 46.3196 267.366 46.4061 267.282C47.1665 266.494 47.9853 265.764 48.8555 265.098C51.3711 263.195 52.0496 263.443 51.8345 262.781C51.0737 261.12 50.6463 259.327 50.5767 257.501C50.8332 257.288 51.1242 257.12 51.4373 257.005C52.9824 256.394 54.5698 255.896 56.1871 255.515C58.1475 254.969 60.1623 254.642 62.1948 254.539C62.5423 254.688 62.8568 256.194 62.9395 256.657C63.5519 259.967 63.1381 260.646 63.6181 260.696C68.3348 261.159 69.2947 262.466 69.6257 261.887C70.5435 260.282 71.6131 258.769 72.8199 257.369C73.1674 257.021 73.1509 256.856 74.1935 257.452C77.3084 259.487 80.0982 261.981 82.4685 264.85C82.7168 265.28 80.5653 267.564 78.993 268.904C78.4469 269.384 79.2247 269.599 80.648 272.314C82.0713 275.028 81.7403 275.789 82.5016 275.624C83.9692 275.272 85.4796 275.133 86.9867 275.21ZM316.684 136.918C313.215 135.501 309.577 134.539 305.86 134.055C303.146 133.625 299.952 133.194 297.254 132.847C299.853 129.173 307.549 119.872 308.839 117.604C309.204 116.992 308.508 116.131 307.995 115.618C305.116 112.54 299.555 111.381 295.285 110.719C292.836 110.322 282.608 109.064 280.87 109.892C278.785 110.885 263.36 134.055 262.897 137.58C262.897 138.176 263.095 138.408 263.674 138.623C266.107 139.516 277.08 140.907 279.529 141.486C276.219 147.278 261.506 166.857 260.067 169.621C259.719 170.316 259.934 170.73 260.348 170.862C261.837 171.453 263.37 171.929 264.932 172.285C265.528 172.468 266.836 171.657 268.739 170.498C277.279 165.368 313.92 141.171 316.734 138.044C316.811 137.97 316.872 137.881 316.913 137.782C316.953 137.683 316.971 137.576 316.966 137.469C316.962 137.363 316.934 137.258 316.885 137.163C316.837 137.068 316.768 136.984 316.684 136.918ZM281.118 156.778C267.051 166.063 262.301 168.777 262.135 168.893C264.403 165.434 278.487 146.136 280.903 141.519C280.945 141.43 280.967 141.332 280.966 141.234C280.966 141.135 280.943 141.038 280.901 140.949C280.858 140.86 280.796 140.782 280.719 140.72C280.642 140.659 280.552 140.615 280.456 140.592C278.801 139.996 266.753 138.706 263.906 137.696C264.27 134.618 279.298 111.348 281.118 110.422C282.939 109.495 300.598 111.597 303.908 113.963C302.17 117.356 292.571 129.239 291.015 132.003C290.701 132.565 290.601 133.112 291.214 133.261C291.826 133.41 307.383 135.23 310.776 136.339C306.638 139.798 285.752 153.667 281.118 156.712V156.778ZM174.95 55.5914C174.95 55.7404 175.049 55.9224 175.297 56.8823C175.363 57.0905 175.506 57.2655 175.697 57.3704C175.888 57.4753 176.113 57.502 176.324 57.445C176.534 57.3836 176.712 57.2409 176.817 57.0485C176.923 56.8561 176.948 56.6296 176.886 56.4189C176.721 55.7735 176.572 55.2273 176.473 54.9625C176.376 54.7808 176.215 54.6415 176.022 54.5718C175.828 54.5021 175.616 54.507 175.426 54.5855C175.235 54.664 175.081 54.8106 174.993 54.9966C174.906 55.1825 174.89 55.3946 174.95 55.5914Z" fill="#9CA2EB"/>
</svg>
