<svg width="99" height="99" viewBox="0 0 99 99" fill="none" xmlns="http://www.w3.org/2000/svg">
<path fill-rule="evenodd" clip-rule="evenodd" d="M49.5 90.75C72.2817 90.75 90.75 72.2817 90.75 49.5C90.75 26.7183 72.2817 8.25 49.5 8.25C26.7183 8.25 8.25 26.7183 8.25 49.5C8.25 72.2817 26.7183 90.75 49.5 90.75ZM72.4299 39.1886C73.5696 37.9156 73.4616 35.9598 72.1886 34.8201C70.9156 33.6803 68.9598 33.7884 67.8201 35.0614L53.9222 50.5845C51.1061 53.73 49.2096 55.8371 47.5881 57.2C46.0435 58.4982 45.1363 58.7812 44.3438 58.7812C43.5512 58.7812 42.644 58.4982 41.0994 57.2C39.4779 55.8371 37.5814 53.7299 34.7653 50.5845L31.1799 46.5799C30.0402 45.3069 28.0844 45.1988 26.8114 46.3385C25.5384 47.4783 25.4304 49.4341 26.5701 50.7071L30.3086 54.8828C32.9314 57.8126 35.1192 60.2564 37.1182 61.9366C39.2328 63.7139 41.5137 64.9688 44.3438 64.9688C47.1738 64.9688 49.4547 63.714 51.5693 61.9366C53.5683 60.2564 55.756 57.8127 58.3789 54.8828L72.4299 39.1886Z" fill="#6F79E7"/>
</svg>
