<svg width="150" height="150" viewBox="0 0 150 150" fill="none" xmlns="http://www.w3.org/2000/svg">
<path d="M75 150C116.421 150 150 116.421 150 75C150 33.5786 116.421 0 75 0C33.5786 0 0 33.5786 0 75C0 116.421 33.5786 150 75 150Z" fill="#E6EBFF"/>
<path d="M120 150H30V53C34.242 52.9952 38.3089 51.308 41.3084 48.3085C44.308 45.3089 45.9952 41.242 46 37H104C103.996 39.1014 104.408 41.1828 105.213 43.1238C106.018 45.0648 107.2 46.8268 108.691 48.308C110.172 49.7991 111.934 50.9816 113.875 51.787C115.817 52.5924 117.898 53.0047 120 53V150Z" fill="white"/>
<path d="M75 102C88.2548 102 99 91.2548 99 78C99 64.7452 88.2548 54 75 54C61.7452 54 51 64.7452 51 78C51 91.2548 61.7452 102 75 102Z" fill="#6F79E7"/>
<path d="M88 108H62C60.3431 108 59 109.343 59 111C59 112.657 60.3431 114 62 114H88C89.6569 114 91 112.657 91 111C91 109.343 89.6569 108 88 108Z" fill="#DFEAFB"/>
<path d="M97 120H53C51.3431 120 50 121.343 50 123C50 124.657 51.3431 126 53 126H97C98.6569 126 100 124.657 100 123C100 121.343 98.6569 120 97 120Z" fill="#DFEAFB"/>
<path d="M75.75 73.2C75.75 72.7858 75.4142 72.45 75 72.45C74.5858 72.45 74.25 72.7858 74.25 73.2H75.75ZM72.0543 81.2311C71.7701 81.5325 71.7841 82.0071 72.0855 82.2913C72.3869 82.5754 72.8616 82.5615 73.1457 82.2601L72.0543 81.2311ZM74.4552 79.7778L75.0009 80.2923L74.4552 79.7778ZM74.25 73.2V78.4058H75.75V73.2H74.25ZM73.1457 82.2601L75.0009 80.2923L73.9095 79.2633L72.0543 81.2311L73.1457 82.2601ZM86.25 78C86.25 84.2132 81.2132 89.25 75 89.25V90.75C82.0416 90.75 87.75 85.0416 87.75 78H86.25ZM75 89.25C68.7868 89.25 63.75 84.2132 63.75 78H62.25C62.25 85.0416 67.9584 90.75 75 90.75V89.25ZM63.75 78C63.75 71.7868 68.7868 66.75 75 66.75V65.25C67.9584 65.25 62.25 70.9584 62.25 78H63.75ZM75 66.75C81.2132 66.75 86.25 71.7868 86.25 78H87.75C87.75 70.9584 82.0416 65.25 75 65.25V66.75ZM74.25 78.4058C74.25 78.7246 74.1282 79.0314 73.9095 79.2633L75.0009 80.2923C75.482 79.782 75.75 79.1072 75.75 78.4058H74.25Z" fill="white"/>
</svg>
