<svg width="366" height="273" viewBox="0 0 366 273" fill="none" xmlns="http://www.w3.org/2000/svg">
<path d="M366 239.691H0V239.874H366V239.691Z" fill="#EBEBEB"/>
<path d="M329.328 251.473H318.42V251.656H329.328V251.473Z" fill="#EBEBEB"/>
<path d="M242.453 253.459H236.09V253.642H242.453V253.459Z" fill="#EBEBEB"/>
<path d="M315.331 244.675H290.303V244.859H315.331V244.675Z" fill="#EBEBEB"/>
<path d="M80.2497 248.452H48.6328V248.635H80.2497V248.452Z" fill="#EBEBEB"/>
<path d="M98.1681 248.452H86.7656V248.635H98.1681V248.452Z" fill="#EBEBEB"/>
<path d="M186.48 245.996H117.91V246.179H186.48V245.996Z" fill="#EBEBEB"/>
<path d="M173.493 207.044H32.1433C31.0355 207.043 29.9733 206.602 29.19 205.819C28.4066 205.036 27.966 203.974 27.9648 202.866V4.17698C27.9664 3.0694 28.4072 2.00766 29.1905 1.22462C29.9738 0.441579 31.0357 0.00117218 32.1433 0H173.493C174.6 0.00156292 175.662 0.44214 176.445 1.22514C177.228 2.00814 177.669 3.06966 177.67 4.17698V202.863C177.67 203.971 177.23 205.034 176.447 205.818C175.663 206.601 174.601 207.043 173.493 207.044ZM32.1448 0.18315C31.0881 0.186267 30.0755 0.607425 29.3283 1.35463C28.5811 2.10184 28.16 3.11437 28.1569 4.17108V202.863C28.16 203.92 28.5811 204.932 29.3283 205.679C30.0755 206.426 31.0881 206.848 32.1448 206.851H173.495C174.551 206.848 175.564 206.426 176.311 205.679C177.058 204.932 177.479 203.92 177.483 202.863V4.17698C177.479 3.12028 177.058 2.10774 176.311 1.36054C175.564 0.61333 174.551 0.192178 173.495 0.18906L32.1448 0.18315Z" fill="#EBEBEB"/>
<path d="M331.822 207.044H190.472C189.364 207.043 188.303 206.602 187.52 205.819C186.736 205.035 186.296 203.973 186.295 202.866V4.17698C186.296 3.06954 186.737 2.00779 187.52 1.22471C188.303 0.441627 189.364 0.00117293 190.472 0H331.822C332.929 0.00117218 333.991 0.441579 334.775 1.22462C335.558 2.00766 335.999 3.0694 336 4.17698V202.863C336 203.971 335.56 205.034 334.776 205.818C333.993 206.602 332.93 207.043 331.822 207.044ZM190.472 0.18315C189.415 0.186267 188.403 0.607425 187.655 1.35463C186.908 2.10184 186.487 3.11437 186.484 4.17108V202.863C186.487 203.92 186.908 204.932 187.655 205.679C188.403 206.426 189.415 206.848 190.472 206.851H331.822C332.88 206.85 333.894 206.429 334.643 205.682C335.392 204.934 335.814 203.921 335.817 202.863V4.17698C335.814 3.119 335.392 2.10536 334.643 1.35794C333.894 0.610522 332.88 0.190228 331.822 0.18906L190.472 0.18315Z" fill="#EBEBEB"/>
<path d="M156.996 239.689H170.627V146.088H156.996V239.689Z" fill="#E6E6E6"/>
<path d="M161.793 239.689H156.994V221.906H166.824L161.793 239.689Z" fill="#F0F0F0"/>
<path d="M301.14 239.689H314.771V146.088H301.14V239.689Z" fill="#E6E6E6"/>
<path d="M156.995 234.834L305.33 234.834V146.088H156.995V234.834Z" fill="#F0F0F0"/>
<path d="M300.535 239.689H305.333V221.906H295.498L300.535 239.689Z" fill="#F0F0F0"/>
<path d="M256.424 153.436V226.849H300.396V153.436H256.424Z" fill="#E6E6E6"/>
<path d="M274.059 156.018H282.759C286.441 156.055 290.004 154.716 292.749 152.263H264.07C266.816 154.716 270.378 156.055 274.059 156.018Z" fill="#F0F0F0"/>
<path d="M209.176 153.436V226.849H253.148V153.436H209.176Z" fill="#E6E6E6"/>
<path d="M226.369 156.018H235.069C238.75 156.055 242.313 154.716 245.058 152.263H216.379C219.125 154.716 222.688 156.055 226.369 156.018Z" fill="#F0F0F0"/>
<path d="M161.93 153.436V226.849H205.902V153.436H161.93Z" fill="#E6E6E6"/>
<path d="M179.123 156.018H187.823C191.505 156.055 195.068 154.716 197.813 152.263H169.133C171.879 154.716 175.442 156.055 179.123 156.018Z" fill="#F0F0F0"/>
<path d="M51.2271 239.689H144.234L144.234 30.6154H51.2271L51.2271 239.689Z" fill="#F0F0F0"/>
<path d="M51.2252 239.689H142.27L142.27 30.6154H51.2252L51.2252 239.689Z" fill="#F5F5F5"/>
<path d="M136.723 234.945V35.3596L56.7736 35.3596L56.7736 234.945H136.723Z" fill="#F0F0F0"/>
<path d="M128.868 72.4783C128.868 69.616 128.304 66.7817 127.209 64.1372C126.113 61.4928 124.508 59.09 122.484 57.066C120.46 55.0421 118.057 53.4366 115.413 52.3412C112.768 51.2458 109.934 50.6821 107.072 50.6821H86.429C80.6483 50.6821 75.1044 52.9785 71.0168 57.066C66.9292 61.1536 64.6328 66.6976 64.6328 72.4783H128.868Z" fill="#FAFAFA"/>
<path d="M128.865 222.54V174.859H64.6301V222.54H128.865Z" fill="#F5F5F5"/>
<path d="M128.867 85.9221H100.533V168.707H128.867V85.9221Z" fill="#F5F5F5"/>
<path d="M92.9663 85.9221H64.6328V168.707H92.9663V85.9221Z" fill="#F5F5F5"/>
<path d="M74.9073 126.942H63.3024C62.8253 126.94 62.368 126.75 62.0306 126.413C61.6932 126.076 61.5031 125.618 61.502 125.141C61.5035 124.664 61.6937 124.207 62.031 123.87C62.3683 123.532 62.8254 123.342 63.3024 123.341H74.9073C75.3843 123.342 75.8414 123.532 76.1787 123.87C76.516 124.207 76.7062 124.664 76.7078 125.141C76.7066 125.618 76.5165 126.076 76.1791 126.413C75.8417 126.75 75.3845 126.94 74.9073 126.942Z" fill="#E0E0E0"/>
<path d="M58.2129 234.945L58.2129 35.3596H56.7743L56.7743 234.945H58.2129Z" fill="#F0F0F0"/>
<path d="M203.058 123.141L301.691 123.141V30.6155L203.058 30.6155V123.141Z" fill="#E6E6E6"/>
<path d="M200.57 123.141L299.203 123.141V30.6155L200.57 30.6155V123.141Z" fill="#F5F5F5"/>
<path d="M194.814 128.497H301.691V123.141L194.814 123.141V128.497Z" fill="#E6E6E6"/>
<path d="M192.016 128.497H293.389V123.141L192.016 123.141V128.497Z" fill="#F5F5F5"/>
<path d="M294.74 118.329V35.429L205.033 35.429V118.329H294.74Z" fill="white"/>
<path d="M252.373 118.329V35.429H247.4V118.329H252.373Z" fill="#F5F5F5"/>
<path d="M206.914 118.329V35.429H205.034V118.329H206.914Z" fill="#E6E6E6"/>
<path d="M254.254 118.329V35.429H252.374V118.329H254.254Z" fill="#E6E6E6"/>
<path d="M216.321 125.595C214.507 106.8 213.244 76.3008 214.225 66.1006C214.242 65.9253 214.296 65.7556 214.383 65.6029C214.471 65.4501 214.59 65.3177 214.733 65.2144C214.922 65.0756 215.147 64.9929 215.382 64.9757C215.616 64.9585 215.85 65.0075 216.058 65.1171C216.266 65.2268 216.439 65.3926 216.557 65.5957C216.675 65.7989 216.734 66.0311 216.727 66.266C216.554 71.3203 216.354 83.9532 217.431 105.746C217.967 116.595 218.74 124.024 218.21 125.592L216.321 125.595Z" fill="#E6E6E6"/>
<path d="M209.559 82.2754C204.39 76.5402 193.845 72.4621 183.096 72.4828C178.876 72.4917 195.935 79.1545 203.035 86.5144C208.709 92.6262 213.38 99.5979 216.873 107.17C215.503 95.9377 214.724 88.0077 209.559 82.2754Z" fill="#E6E6E6"/>
<path d="M219.799 84.0211C224.083 78.0481 233.989 73.4546 244.702 72.9347C248.907 72.7309 232.906 80.2267 226.935 87.9101C222.171 94.3319 218.55 101.527 216.231 109.179C215.918 97.9346 215.51 89.9956 219.799 84.0211Z" fill="#E6E6E6"/>
<path d="M209.329 61.3284C204.956 56.472 196.023 53.0187 186.92 53.0364C183.347 53.0364 197.792 58.6875 203.799 64.9131C208.604 70.0883 212.559 75.9916 215.518 82.4038C214.363 72.9007 213.699 66.1848 209.329 61.3284Z" fill="#E6E6E6"/>
<path d="M217.996 68.5111C221.628 63.4523 230.013 59.5634 239.083 59.1232C242.644 58.9504 229.095 65.2971 224.038 71.8033C220.003 77.2439 216.937 83.3398 214.974 89.8228C214.711 80.2932 214.364 73.5669 217.996 68.5111Z" fill="#E6E6E6"/>
<path d="M217.051 146.088C214.325 146.088 211.703 145.046 209.721 143.174C207.739 141.303 206.548 138.745 206.392 136.024L205.449 119.684H228.653L227.711 136.024C227.554 138.745 226.363 141.303 224.381 143.174C222.399 145.046 219.777 146.088 217.051 146.088Z" fill="#E6E6E6"/>
<path d="M230.155 123.398H203.951L203.201 116.604H230.911L230.155 123.398Z" fill="#E6E6E6"/>
<path d="M183.002 272.75C261.386 272.75 324.929 269.039 324.929 264.461C324.929 259.884 261.386 256.173 183.002 256.173C104.617 256.173 41.0742 259.884 41.0742 264.461C41.0742 269.039 104.617 272.75 183.002 272.75Z" fill="#F5F5F5"/>
<path d="M185.862 256.54L179.75 257.229L177.496 243.368L183.608 242.68L185.862 256.54Z" fill="#FFC3BD"/>
<path d="M213.224 257.875H207.121L205.602 243.742H211.705L213.224 257.875Z" fill="#FFC3BD"/>
<path d="M206.619 257.165H214.059C214.18 257.165 214.298 257.206 214.392 257.282C214.487 257.358 214.553 257.463 214.579 257.582L215.784 263.007C215.813 263.139 215.811 263.276 215.779 263.407C215.747 263.538 215.685 263.661 215.599 263.765C215.514 263.869 215.405 263.953 215.282 264.01C215.16 264.066 215.026 264.094 214.891 264.092C212.496 264.051 210.755 263.911 207.736 263.911C205.881 263.911 200.286 264.102 197.725 264.102C195.214 264.102 194.828 261.569 195.877 261.34C200.58 260.307 204.123 258.893 205.625 257.54C205.899 257.296 206.253 257.162 206.619 257.165Z" fill="#263238"/>
<path d="M179.649 256.181L186.272 255.431C186.393 255.417 186.514 255.444 186.617 255.509C186.719 255.573 186.797 255.671 186.837 255.786L188.646 261.039C188.691 261.166 188.707 261.302 188.693 261.436C188.678 261.571 188.632 261.7 188.56 261.814C188.487 261.928 188.39 262.024 188.275 262.094C188.16 262.165 188.03 262.208 187.896 262.221C185.503 262.451 182.035 262.702 179.033 263.044C175.523 263.442 174.938 264.382 170.796 264.286C168.285 264.227 167.656 261.679 168.709 261.479C173.507 260.547 174.434 259.822 178.246 256.83C178.645 256.487 179.13 256.263 179.649 256.181Z" fill="#263238"/>
<path d="M185.04 78.5429C182.99 80.2355 180.972 81.7067 178.885 83.2132C176.798 84.7198 174.667 86.1185 172.474 87.4759C170.28 88.8332 168.029 90.1345 165.669 91.3161C163.256 92.5661 160.744 93.6144 158.158 94.4503C157.474 94.6689 156.808 94.8491 156.04 95.0411C155.289 95.2039 154.53 95.3257 153.766 95.4059C152.391 95.5536 151.097 95.6201 149.807 95.6792C147.237 95.7973 144.716 95.7944 142.198 95.7766C137.161 95.7161 132.167 95.4739 127.151 95.0308L127.076 90.452C132.002 89.8184 136.95 89.2704 141.846 88.7195C144.294 88.4536 146.735 88.1553 149.121 87.8436C150.302 87.6826 151.484 87.4936 152.574 87.2912C153.042 87.2085 153.506 87.0995 153.962 86.9648C154.392 86.8171 154.919 86.6487 155.407 86.4523C157.5 85.6025 159.532 84.6085 161.488 83.4776C163.513 82.3152 165.539 81.0671 167.53 79.7408C169.521 78.4144 171.503 77.0408 173.468 75.6391C175.432 74.2374 177.395 72.753 179.238 71.3558L185.04 78.5429Z" fill="#FFC3BD"/>
<path d="M191.008 73.3261C190.131 79.0953 177.984 87.9205 177.984 87.9205L169.27 77.1043C173.087 73.0303 177.135 69.1783 181.393 65.5674C185.314 62.3623 191.962 67.0488 191.008 73.3261Z" fill="#407BFF"/>
<path d="M128.757 90.935L125.292 88.4684L124.912 96.2611C125.436 96.2625 125.952 96.1356 126.415 95.8915C126.879 95.6474 127.276 95.2936 127.571 94.8609L128.757 90.935Z" fill="#FFC3BD"/>
<path d="M122.162 86.1998L121.453 93.8374L124.915 96.2612L125.295 88.4684L122.162 86.1998Z" fill="#FFC3BD"/>
<path opacity="0.2" d="M177.5 243.373L178.661 250.517L184.774 249.829L183.613 242.684L177.5 243.373Z" fill="black"/>
<path opacity="0.2" d="M211.709 243.743H205.604L206.389 251.028H212.495L211.709 243.743Z" fill="black"/>
<path d="M211.796 65.752C212.25 65.854 212.68 66.0458 213.059 66.3162C213.439 66.5866 213.76 66.9302 214.005 67.3267C214.249 67.7232 214.412 68.1646 214.483 68.625C214.555 69.0853 214.533 69.5553 214.42 70.0073C213.096 75.504 212.098 81.0741 211.431 86.6886C210.853 91.4151 210.508 95.9303 210.292 100.023C209.786 109.616 209.997 116.929 209.71 119.407C204.938 119.076 186.954 117.825 177.148 117.14C173.838 91.2275 177.717 74.6909 179.895 67.972C180.229 66.925 180.853 65.9944 181.695 65.2883C182.537 64.5823 183.562 64.13 184.651 63.984C185.901 63.8201 187.396 63.662 188.973 63.569C189.525 63.5335 190.085 63.5143 190.655 63.5025C195.285 63.5573 199.907 63.8789 204.499 64.4656C205.371 64.5689 206.251 64.6974 207.108 64.8348C208.82 65.1213 210.447 65.4507 211.796 65.752Z" fill="#346AE1"/>
<path d="M204.217 48.79C203.035 53.1827 201.591 61.2826 204.5 64.4729C196.953 69.5494 192.135 76.6967 190.745 75.1443C190.017 74.332 189.701 64.9308 190.658 63.507C195.708 62.668 195.836 58.974 195.213 55.4528L204.217 48.79Z" fill="#FFC3BD"/>
<path d="M203.914 62.6518C203.914 62.6518 191.615 68.0946 189.984 80.2651C193.373 76.3422 200.857 72.0736 200.857 72.0736L197.556 71.1254C199.655 70.3287 201.828 69.7438 204.044 69.3796C203.678 67.6987 205.63 64.3459 205.63 64.3459L203.914 62.6518Z" fill="#407BFF"/>
<path d="M192.819 62.4553C192.819 62.4553 194.459 69.4061 189.988 80.2651C189.106 76.475 187.898 72.7685 186.375 69.1875L189.387 70.0073C189.387 70.0073 189.239 68.6056 186.8 66.7416C187.817 65.2656 189.084 63.9793 190.545 62.9412L192.819 62.4553Z" fill="#407BFF"/>
<path opacity="0.2" d="M200.546 51.5092L195.217 55.4499C195.375 56.2699 195.46 57.1022 195.472 57.9372C197.392 57.7895 200.14 55.8945 200.481 53.9227C200.648 53.1287 200.67 52.311 200.546 51.5092Z" fill="black"/>
<path d="M188.587 36.07C185.611 36.1985 183.969 41.3297 186.989 45.5554C190.01 49.7811 192.597 35.8972 188.587 36.07Z" fill="#263238"/>
<path d="M203.266 40.5853C203.619 46.6322 204.133 50.1519 201.471 53.5977C197.469 58.7806 189.729 56.9225 187.577 51.1031C185.641 45.8656 185.388 36.8573 190.974 33.763C192.203 33.0741 193.587 32.7109 194.996 32.7079C196.405 32.7049 197.791 33.0622 199.023 33.7459C200.254 34.4295 201.291 35.4168 202.034 36.6139C202.776 37.811 203.2 39.1781 203.266 40.5853Z" fill="#FFC3BD"/>
<path d="M204.154 45.2319C202.537 44.2841 201.125 43.024 200 41.5251C198.875 40.0262 198.059 38.3185 197.601 36.5013C195.828 36.9208 186.994 40.9855 184.278 36.5013C181.562 32.0171 184.98 29.3866 190.062 32.1471C187.814 28.1799 189.858 26.2391 196.921 26.0677C203.984 25.8964 203.034 29.9907 203.034 29.9907C203.034 29.9907 208.381 27.6629 210.272 31.7631C212.462 36.4747 208.421 44.52 204.154 45.2319Z" fill="#263238"/>
<path d="M201.826 28.908C201.891 28.908 204.501 29.5358 207.508 26.5094C206.969 29.0912 202.299 30.8104 202.299 30.8104L201.826 28.908Z" fill="#263238"/>
<path d="M205.336 37.7539C202.52 36.7805 199.109 40.9531 200.369 45.9912C201.629 51.0292 209.131 39.0655 205.336 37.7539Z" fill="#263238"/>
<path d="M206.929 45.6145C206.671 47.1162 205.828 48.4545 204.586 49.3366C202.93 50.4916 201.438 49.1712 201.337 47.2599C201.251 45.5407 202.007 42.8673 203.938 42.4729C204.361 42.3937 204.798 42.4217 205.208 42.5542C205.618 42.6868 205.989 42.9197 206.286 43.2319C206.583 43.544 206.797 43.9255 206.91 44.3416C207.022 44.7577 207.028 45.1953 206.929 45.6145Z" fill="#FFC3BD"/>
<path d="M186.326 185.901C187.793 168.05 198.551 118.633 198.551 118.633L177.144 117.14C177.144 117.14 168.889 166.193 168.256 184.809C167.598 204.166 175.383 247.185 175.383 247.185L185.65 246.017C185.65 246.017 184.854 203.826 186.326 185.901Z" fill="#407BFF"/>
<path opacity="0.5" d="M186.326 185.901C187.793 168.05 198.551 118.633 198.551 118.633L177.144 117.14C177.144 117.14 168.889 166.193 168.256 184.809C167.598 204.166 175.383 247.185 175.383 247.185L185.65 246.017C185.65 246.017 184.854 203.826 186.326 185.901Z" fill="white"/>
<path opacity="0.2" d="M190.487 135.368C186.171 140.886 186.095 160.266 187.764 174.584C189.354 164.255 191.861 151.138 194.057 140.204L190.487 135.368Z" fill="black"/>
<path d="M188.697 117.945C188.697 117.945 191.007 170.194 193.585 187.889C196.406 207.266 203.571 249.616 203.571 249.616H214.749C214.749 249.616 212.91 209.728 211.434 190.691C209.755 169.007 209.709 119.41 209.709 119.41L188.697 117.945Z" fill="#407BFF"/>
<path opacity="0.5" d="M188.697 117.945C188.697 117.945 191.007 170.194 193.585 187.889C196.406 207.266 203.571 249.616 203.571 249.616H214.749C214.749 249.616 212.91 209.728 211.434 190.691C209.755 169.007 209.709 119.41 209.709 119.41L188.697 117.945Z" fill="white"/>
<path d="M202.223 249.854H215.384V245.922L200.672 245.667L202.223 249.854Z" fill="#407BFF"/>
<path d="M174.933 248.341L187.169 246.954L186.726 243.001L173.023 244.343L174.933 248.341Z" fill="#407BFF"/>
<path d="M194.362 43.3576C194.421 43.8465 194.214 44.2733 193.889 44.3117C193.564 44.3502 193.263 43.9853 193.205 43.4964C193.147 43.0075 193.353 42.5807 193.678 42.5423C194.003 42.5039 194.304 42.8687 194.362 43.3576Z" fill="#263238"/>
<path d="M188.838 44.0208C188.897 44.5097 188.69 44.9365 188.365 44.9749C188.04 45.0133 187.739 44.6485 187.68 44.1596C187.621 43.6707 187.828 43.2439 188.153 43.2055C188.478 43.1671 188.779 43.5378 188.838 44.0208Z" fill="#263238"/>
<path d="M190.624 44.0533C190.221 45.617 189.605 47.1179 188.793 48.5138C189.155 48.7124 189.557 48.8294 189.969 48.8567C190.381 48.884 190.794 48.8209 191.18 48.6719L190.624 44.0533Z" fill="#ED847E"/>
<path d="M195.863 41.3651C195.812 41.3806 195.757 41.3818 195.705 41.3685C195.653 41.3552 195.605 41.328 195.568 41.2898C195.323 41.0212 195.019 40.8142 194.679 40.6858C194.34 40.5575 193.974 40.5114 193.614 40.5513C193.538 40.564 193.461 40.5471 193.398 40.5041C193.335 40.4612 193.291 40.3955 193.275 40.3209C193.268 40.2835 193.268 40.2449 193.275 40.2075C193.283 40.1701 193.298 40.1345 193.319 40.103C193.34 40.0714 193.368 40.0445 193.4 40.0239C193.432 40.0032 193.468 39.9892 193.506 39.9826C193.961 39.9236 194.424 39.9749 194.856 40.1322C195.288 40.2895 195.675 40.5482 195.986 40.8866C196.038 40.9416 196.068 41.0149 196.068 41.0911C196.068 41.1674 196.038 41.2407 195.986 41.2957C195.951 41.3287 195.909 41.3526 195.863 41.3651Z" fill="#263238"/>
<path d="M193.743 50.6215C194.44 50.4749 195.091 50.1627 195.642 49.7112C196.193 49.2598 196.627 48.6824 196.908 48.0279C196.922 47.9887 196.919 47.9457 196.901 47.9083C196.883 47.8709 196.851 47.8422 196.812 47.8285C196.773 47.8148 196.73 47.8172 196.692 47.8352C196.655 47.8532 196.626 47.8853 196.613 47.9245C196.344 48.5266 195.937 49.0571 195.426 49.4732C194.914 49.8893 194.312 50.1795 193.668 50.3202C193.648 50.3248 193.629 50.3332 193.612 50.345C193.596 50.3568 193.581 50.3718 193.571 50.3891C193.56 50.4064 193.552 50.4256 193.549 50.4457C193.546 50.4658 193.546 50.4864 193.551 50.5063C193.555 50.5262 193.564 50.545 193.576 50.5616C193.587 50.5782 193.602 50.5924 193.62 50.6032C193.637 50.614 193.656 50.6213 193.676 50.6247C193.696 50.6281 193.717 50.6275 193.737 50.623L193.743 50.6215Z" fill="#263238"/>
<path d="M186.243 42.4049C186.185 42.4243 186.122 42.4243 186.064 42.4049C185.993 42.3785 185.934 42.3255 185.901 42.257C185.867 42.1884 185.862 42.1097 185.885 42.0372C186.024 41.5991 186.266 41.2008 186.591 40.8763C186.917 40.5518 187.315 40.3106 187.754 40.1732C187.828 40.1564 187.906 40.1688 187.971 40.2079C188.036 40.247 188.084 40.3097 188.104 40.3829C188.121 40.4569 188.108 40.5344 188.07 40.5996C188.031 40.6647 187.969 40.7125 187.896 40.733C187.551 40.8479 187.238 41.0431 186.984 41.3025C186.729 41.5618 186.54 41.8779 186.432 42.2248C186.416 42.2673 186.391 42.3056 186.358 42.3369C186.326 42.3681 186.286 42.3914 186.243 42.4049Z" fill="#263238"/>
<path d="M204.61 258.231C204.192 258.265 203.776 258.155 203.429 257.92C203.321 257.826 203.237 257.708 203.186 257.575C203.134 257.442 203.116 257.298 203.133 257.156C203.133 257.072 203.156 256.989 203.2 256.917C203.244 256.845 203.306 256.786 203.381 256.747C204.059 256.398 206.025 257.61 206.247 257.748C206.271 257.764 206.29 257.786 206.302 257.812C206.314 257.839 206.318 257.868 206.313 257.896C206.308 257.924 206.296 257.95 206.276 257.971C206.257 257.992 206.232 258.007 206.204 258.014C205.683 258.146 205.148 258.219 204.61 258.231ZM203.703 256.969C203.639 256.966 203.575 256.978 203.516 257.004C203.486 257.021 203.461 257.045 203.445 257.076C203.429 257.106 203.422 257.14 203.424 257.174C203.411 257.271 203.422 257.369 203.456 257.461C203.491 257.552 203.547 257.634 203.621 257.698C204.303 258.009 205.078 258.049 205.787 257.808C205.151 257.395 204.441 257.11 203.696 256.969H203.703Z" fill="#407BFF"/>
<path d="M206.166 258.017C206.142 258.017 206.118 258.011 206.096 258C205.466 257.657 204.244 256.319 204.373 255.636C204.394 255.53 204.451 255.434 204.535 255.365C204.618 255.296 204.723 255.257 204.832 255.257C204.942 255.243 205.054 255.253 205.16 255.285C205.266 255.317 205.364 255.371 205.448 255.443C206.157 256.023 206.303 257.784 206.308 257.858C206.309 257.884 206.304 257.91 206.293 257.933C206.282 257.956 206.264 257.976 206.243 257.991C206.22 258.007 206.193 258.016 206.166 258.017ZM204.934 255.543H204.868C204.68 255.567 204.664 255.653 204.656 255.691C204.579 256.093 205.358 257.103 205.986 257.58C205.944 256.882 205.693 256.213 205.265 255.66C205.172 255.583 205.055 255.542 204.934 255.543Z" fill="#407BFF"/>
<path d="M179.153 257.084L179.13 257.094C178.174 257.4 176.464 257.833 175.733 257.322C175.625 257.247 175.537 257.147 175.476 257.031C175.415 256.915 175.384 256.785 175.384 256.654C175.378 256.575 175.393 256.496 175.427 256.424C175.461 256.352 175.513 256.291 175.578 256.245C176.264 255.762 178.845 256.712 179.137 256.822C179.162 256.833 179.184 256.851 179.199 256.873C179.215 256.895 179.224 256.922 179.226 256.949C179.228 256.976 179.222 257.003 179.209 257.027C179.196 257.051 179.177 257.072 179.153 257.085V257.084ZM175.781 256.458L175.747 256.478C175.721 256.496 175.7 256.521 175.687 256.55C175.674 256.579 175.669 256.611 175.674 256.642C175.672 256.729 175.691 256.815 175.73 256.892C175.769 256.969 175.827 257.036 175.898 257.085C176.796 257.366 177.765 257.313 178.628 256.938C177.734 256.541 176.754 256.376 175.78 256.458H175.781Z" fill="#407BFF"/>
<path d="M179.153 257.084C179.119 257.101 179.078 257.105 179.041 257.093C178.273 256.847 176.678 255.7 176.707 255.003C176.715 254.839 176.808 254.625 177.198 254.54C177.339 254.509 177.484 254.507 177.626 254.534C177.768 254.561 177.903 254.616 178.022 254.697C178.648 255.295 179.07 256.076 179.227 256.927C179.232 256.952 179.231 256.978 179.223 257.002C179.215 257.026 179.201 257.047 179.183 257.065C179.174 257.072 179.164 257.079 179.153 257.084ZM177.099 254.883C177 254.936 176.997 254.998 176.995 255.022C176.975 255.441 178.077 256.36 178.876 256.723C178.728 256.043 178.375 255.424 177.864 254.951C177.777 254.891 177.678 254.849 177.573 254.829C177.469 254.809 177.362 254.811 177.258 254.834C177.203 254.843 177.149 254.859 177.099 254.883Z" fill="#407BFF"/>
<path d="M216.942 74.555C216.786 76.9389 216.506 79.1589 216.215 81.4512C215.924 83.7435 215.532 85.99 215.103 88.2573C214.252 92.888 212.996 97.435 211.35 101.846L210.624 103.555L210.441 103.982L210.395 104.088L210.32 104.25L210.107 104.671C209.826 105.183 209.489 105.661 209.102 106.098C208.465 106.815 207.72 107.428 206.895 107.915C206.226 108.313 205.525 108.653 204.799 108.932C202.38 109.805 199.85 110.333 197.284 110.501C192.625 110.849 187.941 110.674 183.32 109.98L183.487 105.401L186.716 105.036C187.799 104.908 188.875 104.741 189.946 104.593C192.083 104.278 194.198 103.927 196.215 103.459C198.079 103.079 199.892 102.478 201.615 101.669C202.079 101.473 202.486 101.163 202.796 100.766C202.815 100.661 202.582 101.121 202.857 100.386L203.34 98.9744C204.523 94.9265 205.428 90.8024 206.049 86.6311C206.396 84.5071 206.692 82.364 206.979 80.2149C207.266 78.0659 207.502 75.8725 207.728 73.8121L216.942 74.555Z" fill="#FFC3BD"/>
<path d="M217.475 70.1299C220.463 75.1414 217.918 90.8922 217.918 90.8922L202.262 87.9988C202.262 87.9988 201.414 78.989 204.395 72.0559C207.631 64.5099 213.855 64.0579 217.475 70.1299Z" fill="#407BFF"/>
<path d="M179.102 119.567L170.794 80.9224C170.395 79.2721 169.471 77.7963 168.16 76.7173C166.849 75.6383 165.223 75.0147 163.527 74.9405H131.693C133.39 75.0144 135.016 75.6379 136.327 76.7169C137.638 77.7959 138.563 79.2719 138.962 80.9224L147.27 119.567C147.669 121.217 148.593 122.693 149.904 123.772C151.215 124.851 152.841 125.474 154.537 125.549H186.369C184.673 125.474 183.047 124.851 181.736 123.772C180.426 122.693 179.501 121.217 179.102 119.567Z" fill="#263238"/>
<path opacity="0.7" d="M179.102 119.567L170.794 80.9224C170.395 79.2721 169.471 77.7963 168.16 76.7173C166.849 75.6383 165.223 75.0147 163.527 74.9405H131.693C133.39 75.0144 135.016 75.6379 136.327 76.7169C137.638 77.7959 138.563 79.2719 138.962 80.9224L147.27 119.567C147.669 121.217 148.593 122.693 149.904 123.772C151.215 124.851 152.841 125.474 154.537 125.549H186.369C184.673 125.474 183.047 124.851 181.736 123.772C180.426 122.693 179.501 121.217 179.102 119.567Z" fill="#407BFF"/>
<path d="M131.693 74.9405H163.526C161.896 74.971 160.333 75.5957 159.132 76.6973C157.93 77.7988 157.172 79.3013 157 80.9224L148.742 170.725C148.57 172.345 147.812 173.848 146.61 174.949C145.409 176.051 143.847 176.676 142.217 176.706H122.348C121.583 176.721 120.823 176.571 120.12 176.268C119.417 175.965 118.787 175.515 118.272 174.949C117.758 174.382 117.37 173.712 117.135 172.984C116.9 172.255 116.823 171.485 116.91 170.725L125.169 80.9224C125.341 79.3016 126.099 77.7993 127.3 76.6978C128.501 75.5963 130.063 74.9713 131.693 74.9405Z" fill="#407BFF"/>
<path d="M136.778 170.723C136.691 171.484 136.767 172.254 137.002 172.982C137.237 173.711 137.625 174.381 138.14 174.947C138.655 175.513 139.285 175.963 139.988 176.266C140.691 176.57 141.451 176.719 142.216 176.705H110.383C109.618 176.719 108.858 176.57 108.155 176.267C107.452 175.964 106.822 175.514 106.307 174.948C105.792 174.381 105.404 173.711 105.169 172.983C104.934 172.254 104.858 171.484 104.945 170.723H136.778Z" fill="#263238"/>
<path opacity="0.7" d="M136.778 170.723C136.691 171.484 136.767 172.254 137.002 172.982C137.237 173.711 137.625 174.381 138.14 174.947C138.655 175.513 139.285 175.963 139.988 176.266C140.691 176.57 141.451 176.719 142.216 176.705H110.383C109.618 176.719 108.858 176.57 108.155 176.267C107.452 175.964 106.822 175.514 106.307 174.948C105.792 174.381 105.404 173.711 105.169 172.983C104.934 172.254 104.858 171.484 104.945 170.723H136.778Z" fill="#407BFF"/>
<g opacity="0.5">
<path opacity="0.5" d="M151.483 85.0019H129.943C129.776 85.0042 129.612 84.971 129.459 84.9047C129.306 84.8384 129.17 84.7403 129.058 84.6171C128.946 84.4939 128.862 84.3483 128.811 84.1901C128.76 84.0318 128.743 83.8645 128.761 83.6991C128.799 83.3465 128.965 83.0198 129.226 82.7801C129.488 82.5404 129.827 82.404 130.182 82.3964H151.72C151.886 82.3941 152.051 82.4273 152.204 82.4936C152.356 82.5599 152.493 82.6579 152.605 82.7811C152.716 82.9044 152.801 83.0499 152.852 83.2082C152.903 83.3665 152.92 83.5338 152.901 83.6991C152.863 84.0513 152.698 84.3776 152.437 84.6172C152.177 84.8568 151.838 84.9935 151.483 85.0019Z" fill="white"/>
<path opacity="0.5" d="M150.843 92.0487H129.302C129.136 92.0509 128.971 92.0178 128.818 91.9515C128.666 91.8851 128.529 91.7871 128.417 91.6639C128.306 91.5407 128.221 91.3951 128.17 91.2369C128.119 91.0786 128.102 90.9112 128.121 90.7459C128.159 90.3933 128.324 90.0666 128.586 89.8269C128.847 89.5872 129.187 89.4508 129.541 89.4432H151.082C151.248 89.4409 151.413 89.4741 151.566 89.5404C151.718 89.6067 151.855 89.7048 151.967 89.828C152.079 89.9512 152.163 90.0967 152.214 90.255C152.265 90.4133 152.282 90.5806 152.264 90.7459C152.226 91.0987 152.061 91.4255 151.799 91.6653C151.537 91.9051 151.198 92.0414 150.843 92.0487Z" fill="white"/>
<path opacity="0.5" d="M144.918 99.0955H128.658C128.491 99.0978 128.326 99.0646 128.174 98.9983C128.021 98.932 127.885 98.8339 127.773 98.7107C127.661 98.5875 127.577 98.4419 127.526 98.2837C127.474 98.1254 127.458 97.9581 127.476 97.7927C127.514 97.4401 127.68 97.1135 127.941 96.8737C128.203 96.634 128.542 96.4977 128.897 96.49H145.157C145.324 96.4878 145.489 96.5209 145.641 96.5872C145.794 96.6535 145.93 96.7516 146.042 96.8748C146.154 96.998 146.238 97.1436 146.289 97.3018C146.34 97.4601 146.357 97.6274 146.339 97.7927C146.301 98.1454 146.135 98.4721 145.874 98.7118C145.612 98.9515 145.273 99.0879 144.918 99.0955Z" fill="white"/>
<path opacity="0.5" d="M133.535 106.141H128.021C127.855 106.143 127.69 106.11 127.537 106.044C127.385 105.977 127.248 105.879 127.136 105.756C127.024 105.633 126.94 105.487 126.889 105.329C126.838 105.171 126.821 105.003 126.839 104.838C126.877 104.486 127.042 104.159 127.303 103.919C127.565 103.679 127.904 103.543 128.259 103.535H133.774C133.94 103.533 134.105 103.566 134.258 103.633C134.41 103.699 134.547 103.797 134.659 103.92C134.77 104.043 134.855 104.189 134.906 104.347C134.957 104.505 134.974 104.673 134.955 104.838C134.917 105.191 134.752 105.517 134.49 105.757C134.229 105.997 133.889 106.133 133.535 106.141Z" fill="white"/>
<path opacity="0.5" d="M148.919 113.188H127.372C127.206 113.19 127.041 113.157 126.889 113.09C126.736 113.024 126.599 112.926 126.488 112.803C126.376 112.68 126.292 112.534 126.241 112.376C126.189 112.218 126.172 112.05 126.191 111.885C126.229 111.532 126.394 111.206 126.656 110.966C126.917 110.726 127.257 110.59 127.612 110.582H149.152C149.319 110.58 149.484 110.613 149.636 110.679C149.789 110.746 149.925 110.844 150.037 110.967C150.149 111.09 150.233 111.236 150.284 111.394C150.336 111.552 150.352 111.72 150.334 111.885C150.296 112.237 150.131 112.562 149.871 112.802C149.611 113.042 149.273 113.179 148.919 113.188Z" fill="white"/>
<path opacity="0.5" d="M139.794 120.234H126.738C126.571 120.237 126.406 120.204 126.254 120.137C126.101 120.071 125.965 119.973 125.853 119.85C125.741 119.727 125.657 119.581 125.606 119.423C125.555 119.264 125.538 119.097 125.556 118.932C125.594 118.579 125.759 118.253 126.02 118.013C126.281 117.773 126.621 117.637 126.975 117.629H140.032C140.199 117.627 140.363 117.66 140.516 117.726C140.669 117.793 140.805 117.891 140.917 118.014C141.029 118.137 141.113 118.283 141.164 118.441C141.215 118.599 141.232 118.766 141.214 118.932C141.176 119.284 141.01 119.611 140.749 119.85C140.488 120.09 140.149 120.227 139.794 120.234Z" fill="white"/>
<path opacity="0.5" d="M147.638 127.28H126.097C125.931 127.282 125.766 127.249 125.613 127.183C125.461 127.116 125.324 127.018 125.212 126.895C125.101 126.772 125.016 126.626 124.965 126.468C124.914 126.31 124.897 126.142 124.915 125.977C124.954 125.624 125.119 125.298 125.381 125.058C125.642 124.818 125.982 124.682 126.336 124.674H147.879C148.045 124.672 148.21 124.705 148.362 124.772C148.515 124.838 148.651 124.936 148.763 125.059C148.875 125.182 148.959 125.328 149.01 125.486C149.062 125.644 149.079 125.812 149.06 125.977C149.022 126.33 148.856 126.657 148.595 126.897C148.333 127.136 147.993 127.273 147.638 127.28Z" fill="white"/>
<path opacity="0.5" d="M141.717 134.327H125.456C125.29 134.329 125.125 134.296 124.973 134.229C124.82 134.163 124.683 134.065 124.572 133.942C124.46 133.819 124.376 133.673 124.324 133.515C124.273 133.357 124.256 133.189 124.275 133.024C124.313 132.671 124.478 132.345 124.74 132.105C125.001 131.865 125.341 131.729 125.696 131.721H141.956C142.122 131.719 142.287 131.752 142.44 131.818C142.592 131.885 142.729 131.983 142.841 132.106C142.953 132.229 143.037 132.375 143.088 132.533C143.139 132.691 143.156 132.859 143.138 133.024C143.099 133.376 142.934 133.703 142.673 133.943C142.411 134.183 142.071 134.319 141.717 134.327Z" fill="white"/>
<path opacity="0.5" d="M130.33 141.372H124.812C124.646 141.374 124.481 141.341 124.328 141.275C124.176 141.208 124.039 141.11 123.927 140.987C123.815 140.864 123.731 140.718 123.68 140.56C123.629 140.402 123.612 140.235 123.63 140.069C123.669 139.717 123.834 139.39 124.095 139.15C124.357 138.911 124.697 138.774 125.051 138.766H130.572C130.739 138.764 130.903 138.797 131.056 138.864C131.209 138.93 131.345 139.028 131.457 139.151C131.569 139.274 131.653 139.42 131.704 139.578C131.755 139.737 131.772 139.904 131.754 140.069C131.715 140.422 131.55 140.749 131.288 140.989C131.026 141.229 130.685 141.365 130.33 141.372Z" fill="white"/>
<path opacity="0.5" d="M145.712 148.42H124.171C124.005 148.423 123.84 148.389 123.688 148.323C123.535 148.257 123.398 148.159 123.287 148.035C123.175 147.912 123.091 147.767 123.039 147.608C122.988 147.45 122.971 147.283 122.99 147.118C123.028 146.765 123.193 146.438 123.455 146.199C123.716 145.959 124.056 145.822 124.411 145.815H145.951C146.118 145.813 146.282 145.846 146.435 145.912C146.588 145.978 146.724 146.076 146.836 146.2C146.948 146.323 147.032 146.468 147.083 146.627C147.134 146.785 147.151 146.952 147.133 147.118C147.095 147.47 146.929 147.797 146.668 148.037C146.406 148.276 146.067 148.413 145.712 148.42Z" fill="white"/>
<path opacity="0.5" d="M136.591 155.466H123.535C123.368 155.468 123.203 155.435 123.051 155.368C122.898 155.302 122.762 155.204 122.65 155.081C122.538 154.958 122.454 154.812 122.403 154.654C122.351 154.496 122.334 154.328 122.353 154.163C122.391 153.81 122.556 153.483 122.818 153.243C123.079 153.004 123.419 152.867 123.774 152.86H136.829C136.995 152.858 137.16 152.891 137.313 152.957C137.465 153.024 137.602 153.122 137.714 153.245C137.826 153.368 137.91 153.514 137.961 153.672C138.012 153.83 138.029 153.998 138.011 154.163C137.972 154.515 137.807 154.842 137.546 155.081C137.285 155.321 136.946 155.458 136.591 155.466Z" fill="white"/>
<path opacity="0.5" d="M144.433 162.512H122.892C122.726 162.515 122.561 162.482 122.408 162.415C122.256 162.349 122.119 162.251 122.007 162.128C121.895 162.004 121.811 161.859 121.76 161.701C121.709 161.542 121.692 161.375 121.71 161.21C121.749 160.857 121.914 160.53 122.175 160.291C122.437 160.051 122.777 159.915 123.131 159.907H144.669C144.835 159.905 145 159.938 145.153 160.004C145.305 160.07 145.442 160.168 145.554 160.292C145.666 160.415 145.75 160.56 145.801 160.719C145.852 160.877 145.869 161.044 145.851 161.21C145.812 161.562 145.648 161.888 145.387 162.128C145.126 162.367 144.787 162.504 144.433 162.512Z" fill="white"/>
</g>
<path d="M185.366 105.9L180.69 101.837L178.498 109.316C178.498 109.316 183.248 111.892 184.893 109.528L185.366 105.9Z" fill="#FFC3BD"/>
<path d="M175.596 101.544L174.074 107.813L178.493 109.319L180.685 101.838L175.596 101.544Z" fill="#FFC3BD"/>
</svg>
