<svg width="16" height="16" viewBox="0 0 16 16" fill="none" xmlns="http://www.w3.org/2000/svg">
<path d="M13.0199 3.6869C13.2152 3.49163 13.2152 3.17505 13.0199 2.97979C12.8247 2.78453 12.5081 2.78453 12.3128 2.97979L7.99968 7.29291L3.68656 2.97979C3.4913 2.78453 3.17472 2.78453 2.97945 2.97979C2.78419 3.17505 2.78419 3.49164 2.97945 3.6869L7.29258 8.00002L2.97947 12.3131C2.78421 12.5084 2.78421 12.825 2.97947 13.0202C3.17473 13.2155 3.49132 13.2155 3.68658 13.0202L7.99968 8.70713L12.3128 13.0202C12.508 13.2155 12.8246 13.2155 13.0199 13.0202C13.2152 12.825 13.2152 12.5084 13.0199 12.3131L8.70679 8.00002L13.0199 3.6869Z" fill="#6F6F6F"/>
</svg>
