<svg width="21" height="21" viewBox="0 0 21 21" fill="none" xmlns="http://www.w3.org/2000/svg">
<path d="M16.2025 11.1821L16.9454 11.2854L16.2025 11.1821ZM15.973 12.8315L16.7158 12.9348V12.9348L15.973 12.8315ZM5.02699 12.8315L5.76984 12.7281L5.02699 12.8315ZM4.79745 11.1821L4.05461 11.2854H4.05461L4.79745 11.1821ZM8.03569 19.0197L7.7441 19.7107L8.03569 19.0197ZM5.6657 16.2403L6.36969 15.9816L5.6657 16.2403ZM15.3343 16.2403L16.0383 16.4989L15.3343 16.2403ZM12.9643 19.0197L12.6727 18.3287H12.6727L12.9643 19.0197ZM5.12164 7.80406C5.08246 7.3917 4.71642 7.08918 4.30406 7.12836C3.8917 7.16754 3.58918 7.53358 3.62836 7.94594L5.12164 7.80406ZM17.3716 7.94594C17.4108 7.53358 17.1083 7.16754 16.6959 7.12836C16.2836 7.08918 15.9175 7.3917 15.8784 7.80406L17.3716 7.94594ZM17.5 6.875C17.9142 6.875 18.25 6.53921 18.25 6.125C18.25 5.71079 17.9142 5.375 17.5 5.375V6.875ZM3.5 5.375C3.08579 5.375 2.75 5.71079 2.75 6.125C2.75 6.53921 3.08579 6.875 3.5 6.875V5.375ZM8 15.75C8 16.1642 8.33579 16.5 8.75 16.5C9.16421 16.5 9.5 16.1642 9.5 15.75H8ZM9.5 8.75C9.5 8.33579 9.16421 8 8.75 8C8.33579 8 8 8.33579 8 8.75H9.5ZM11.5 15.75C11.5 16.1642 11.8358 16.5 12.25 16.5C12.6642 16.5 13 16.1642 13 15.75H11.5ZM13 8.75C13 8.33579 12.6642 8 12.25 8C11.8358 8 11.5 8.33579 11.5 8.75H13ZM14 6.125V6.875H14.75V6.125H14ZM7 6.125H6.25V6.875H7V6.125ZM15.4597 11.0787L15.2302 12.7281L16.7158 12.9348L16.9454 11.2854L15.4597 11.0787ZM5.76984 12.7281L5.54029 11.0787L4.05461 11.2854L4.28415 12.9348L5.76984 12.7281ZM10.5 18.5C9.15356 18.5 8.69952 18.4858 8.32728 18.3287L7.7441 19.7107C8.46323 20.0142 9.2883 20 10.5 20V18.5ZM4.28415 12.9348C4.52822 14.6886 4.66246 15.6845 4.96171 16.4989L6.36969 15.9816C6.13996 15.3564 6.02472 14.5596 5.76984 12.7281L4.28415 12.9348ZM8.32728 18.3287C7.55062 18.001 6.81492 17.1935 6.36969 15.9816L4.96171 16.4989C5.50566 17.9795 6.47988 19.1772 7.7441 19.7107L8.32728 18.3287ZM15.2302 12.7281C14.9753 14.5596 14.86 15.3564 14.6303 15.9816L16.0383 16.4989C16.3375 15.6845 16.4718 14.6886 16.7158 12.9348L15.2302 12.7281ZM10.5 20C11.7117 20 12.5368 20.0142 13.2559 19.7107L12.6727 18.3287C12.3005 18.4858 11.8464 18.5 10.5 18.5V20ZM14.6303 15.9816C14.1851 17.1935 13.4494 18.001 12.6727 18.3287L13.2559 19.7107C14.5201 19.1772 15.4943 17.9795 16.0383 16.4989L14.6303 15.9816ZM5.54029 11.0787C5.34582 9.68131 5.20104 8.63978 5.12164 7.80406L3.62836 7.94594C3.71157 8.82172 3.86192 9.90083 4.05461 11.2854L5.54029 11.0787ZM16.9454 11.2854C17.1381 9.90082 17.2884 8.82172 17.3716 7.94594L15.8784 7.80406C15.799 8.63977 15.6542 9.6813 15.4597 11.0787L16.9454 11.2854ZM17.5 5.375H3.5V6.875H17.5V5.375ZM9.5 15.75V8.75H8V15.75H9.5ZM13 15.75V8.75H11.5V15.75H13ZM13.25 5.25V6.125H14.75V5.25H13.25ZM14 5.375H7V6.875H14V5.375ZM7.75 6.125V5.25H6.25V6.125H7.75ZM10.5 2.5C12.0188 2.5 13.25 3.73122 13.25 5.25H14.75C14.75 2.90279 12.8472 1 10.5 1V2.5ZM10.5 1C8.15279 1 6.25 2.90279 6.25 5.25H7.75C7.75 3.73122 8.98122 2.5 10.5 2.5V1Z" fill="#E65252"/>
</svg>
