<svg width="16" height="16" viewBox="0 0 16 16" fill="none" xmlns="http://www.w3.org/2000/svg">
<path d="M10.3335 11L5.66682 10.9997M3.33348 10.9997C2.6653 10.9997 2.18289 10.3601 2.36646 9.71765L3.72384 4.96702C3.88739 4.39463 4.41057 4 5.00587 4H9.54165C10.0804 4 10.5662 4.32424 10.7729 4.82177L11.5573 6.70967C11.7542 7.18358 12.2169 7.49243 12.7301 7.49243C13.4315 7.49243 14.0001 8.06104 14.0001 8.76245V9.66634C14.0001 10.4027 13.4032 10.9997 12.6668 10.9997M3.33348 10.9997C3.33348 11.552 3.7812 12 4.33348 12C4.88577 12 5.33348 11.5523 5.33348 11C5.33348 10.4477 4.88577 10 4.33348 10C3.7812 10 3.33348 10.4474 3.33348 10.9997ZM12.6668 10.9997C12.6668 11.552 12.2191 12 11.6668 12C11.1145 12 10.6668 11.5523 10.6668 11C10.6668 10.4477 11.1145 10 11.6668 10C12.2191 10 12.6668 10.4474 12.6668 10.9997ZM8.00015 4.33333V7.33333M5.33348 4L4.66682 7M11.6668 7L10.6523 7.50728C10.4434 7.6117 10.2108 7.65945 9.97769 7.64574L4.79111 7.34065C4.70843 7.33578 4.62638 7.32322 4.54602 7.30314L3.33348 7M8.66682 8.66667H8.00015" stroke="white" stroke-width="1.01786" stroke-linecap="round" stroke-linejoin="round"/>
</svg>
