<svg width="16" height="16" viewBox="0 0 16 16" fill="none" xmlns="http://www.w3.org/2000/svg">
<path d="M6.33303 8.33331L7.44414 9.66665L9.66636 6.99998M12.6663 4.79328L12.1829 9.99031C12.1203 10.6629 11.7429 11.2614 11.1724 11.5926L8.32645 13.2448C8.12354 13.3626 7.87581 13.3626 7.6729 13.2448L4.82697 11.5926C4.25646 11.2614 3.87904 10.6629 3.81647 9.99031L3.33301 4.79328C3.33301 4.79328 5.06347 4.631 5.99967 4.02857C6.56067 3.66759 7.14652 3.18244 7.53804 2.84016C7.80289 2.60862 8.19646 2.60862 8.46131 2.84016C8.85282 3.18244 9.43868 3.66759 9.99967 4.02857C10.9359 4.631 12.6663 4.79328 12.6663 4.79328Z" stroke="#FDFDFD" stroke-width="1.5" stroke-linecap="round" stroke-linejoin="round"/>
</svg>
