<svg width="16" height="16" viewBox="0 0 16 16" fill="none" xmlns="http://www.w3.org/2000/svg">
<g clip-path="url(#clip0_11069_52461)">
<path d="M13.0651 11.6023C12.8454 11.3827 12.4893 11.3827 12.2696 11.6023C12.0499 11.822 12.0499 12.1782 12.2696 12.3978L13.0651 11.6023ZM14.9362 15.0645C15.1559 15.2841 15.512 15.2841 15.7317 15.0645C15.9514 14.8448 15.9514 14.4886 15.7317 14.269L14.9362 15.0645ZM12.2696 12.3978L14.9362 15.0645L15.7317 14.269L13.0651 11.6023L12.2696 12.3978ZM7.33398 12.1042C4.33094 12.1042 1.89648 9.66973 1.89648 6.66669H0.771484C0.771484 10.2911 3.70962 13.2292 7.33398 13.2292V12.1042ZM12.7715 6.66669C12.7715 9.66973 10.337 12.1042 7.33398 12.1042V13.2292C10.9584 13.2292 13.8965 10.2911 13.8965 6.66669H12.7715ZM7.33398 1.22919C10.337 1.22919 12.7715 3.66364 12.7715 6.66669H13.8965C13.8965 3.04232 10.9584 0.104187 7.33398 0.104187V1.22919ZM7.33398 0.104187C3.70962 0.104187 0.771484 3.04232 0.771484 6.66669H1.89648C1.89648 3.66364 4.33094 1.22919 7.33398 1.22919V0.104187Z" fill="#5B5B5B"/>
</g>
<defs>
<clipPath id="clip0_11069_52461">
<rect width="16" height="16" fill="white"/>
</clipPath>
</defs>
</svg>
