<svg width="12" height="12" viewBox="0 0 12 12" fill="none" xmlns="http://www.w3.org/2000/svg">
<circle cx="6" cy="6" r="6" fill="#6F79E7"/>
<path d="M9 6C9 7.65685 7.65685 9 6 9C4.34315 9 3 7.65685 3 6C3 4.34315 4.34315 3 6 3C7.65685 3 9 4.34315 9 6Z" fill="white"/>
<path d="M6.25 4.8C6.25 4.66193 6.13807 4.55 6 4.55C5.86193 4.55 5.75 4.66193 5.75 4.8H6.25ZM5.2181 6.7649C5.12338 6.86536 5.12804 7.02358 5.2285 7.1183C5.32896 7.21301 5.48719 7.20836 5.5819 7.1079L5.2181 6.7649ZM5.75 4.8V6.06837H6.25V4.8H5.75ZM5.5819 7.1079L6.02301 6.64003L5.6592 6.29704L5.2181 6.7649L5.5819 7.1079ZM8.75 6C8.75 7.51878 7.51878 8.75 6 8.75V9.25C7.79493 9.25 9.25 7.79493 9.25 6H8.75ZM6 8.75C4.48122 8.75 3.25 7.51878 3.25 6H2.75C2.75 7.79493 4.20507 9.25 6 9.25V8.75ZM3.25 6C3.25 4.48122 4.48122 3.25 6 3.25V2.75C4.20507 2.75 2.75 4.20507 2.75 6H3.25ZM6 3.25C7.51878 3.25 8.75 4.48122 8.75 6H9.25C9.25 4.20507 7.79493 2.75 6 2.75V3.25ZM5.75 6.06837C5.75 6.15338 5.71752 6.23518 5.6592 6.29704L6.02301 6.64003C6.1688 6.4854 6.25 6.2809 6.25 6.06837H5.75Z" fill="#6F79E7"/>
</svg>
